<svg version="1.1" id="Layer_1" xmlns="http://www.w3.org/2000/svg" xmlns:xlink="http://www.w3.org/1999/xlink" x="0px" y="0px"
	 width="100%" viewBox="0 0 2295 1712" enable-background="new 0 0 2295 1712" xml:space="preserve">
<path fill="#FFFFFF" opacity="1.000000" stroke="none" 
	d="
M1611.000000,1713.000000 
	C1074.000000,1713.000000 537.500000,1713.000000 1.000000,1713.000000 
	C1.000000,1142.333374 1.000000,571.666687 1.000000,1.000000 
	C766.000000,1.000000 1531.000000,1.000000 2296.000000,1.000000 
	C2296.000000,571.666687 2296.000000,1142.333374 2296.000000,1713.000000 
	C2067.833252,1713.000000 1839.666626,1713.000000 1611.000000,1713.000000 
M832.526855,543.462097 
	C730.966187,488.599396 629.405518,433.736725 527.441833,378.656372 
	C571.524231,352.902985 599.818604,316.040588 608.937439,265.978271 
	C618.077820,215.798019 605.826050,170.605743 572.760254,131.855820 
	C513.018982,61.844704 405.202515,55.715717 337.592224,122.461311 
	C307.405548,152.261932 290.935547,188.903580 290.186584,231.403656 
	C289.015686,297.847015 319.579651,346.670746 376.525177,380.160645 
	C375.314880,380.904144 374.513092,381.461731 373.655792,381.914093 
	C277.445007,432.681610 181.238464,483.457092 84.977409,534.129089 
	C81.924004,535.736450 80.747322,537.440125 80.756691,540.952393 
	C80.881638,587.781982 80.837402,634.612061 80.852615,681.442017 
	C80.853058,682.821228 81.042740,684.200500 81.179977,686.066223 
	C167.696945,642.685547 253.648499,599.588379 340.419464,556.080383 
	C340.419464,559.330322 340.419464,561.309631 340.419464,563.288940 
	C340.420197,658.448792 340.395874,753.608582 340.499237,848.768372 
	C340.504181,853.304565 339.438660,857.046997 336.938538,860.832947 
	C263.179749,972.527222 189.504623,1084.276733 115.817795,1196.018555 
	C102.539604,1216.154297 89.268387,1236.294556 75.774933,1256.765137 
	C111.533882,1287.191040 147.136978,1317.484375 183.125259,1348.105347 
	C276.364960,1217.306152 369.400513,1086.793335 462.821228,955.740173 
	C549.204346,1084.510254 635.323242,1212.886597 721.725891,1341.685913 
	C757.717041,1309.234009 793.302002,1277.148315 829.328796,1245.562622 
	C863.924500,1277.906128 898.520203,1310.249512 933.221130,1342.691406 
	C1008.054993,1273.746216 1082.414673,1205.237915 1156.891968,1136.621216 
	C1183.857056,1162.276733 1210.420166,1187.473389 1236.898193,1212.759399 
	C1280.360840,1254.265259 1323.767212,1295.830200 1367.200317,1337.366821 
	C1372.040894,1341.996094 1374.257202,1342.060425 1378.911377,1337.281982 
	C1394.940918,1320.824097 1410.879395,1304.277832 1426.896362,1287.807739 
	C1440.936523,1273.370361 1455.035278,1258.989868 1469.742676,1244.875244 
	C1507.019287,1276.820801 1544.295898,1308.766357 1582.074707,1341.142334 
	C1666.270264,1212.188843 1750.234253,1083.590210 1834.570068,954.421692 
	C1880.603394,1018.455566 1926.358032,1082.088501 1972.098267,1145.731567 
	C2017.830200,1209.363159 2063.547852,1273.004883 2109.430664,1336.863159 
	C2111.479004,1335.261841 2113.057129,1334.052490 2114.609619,1332.810791 
	C2148.565430,1305.647217 2182.514160,1278.475098 2216.475098,1251.317505 
	C2222.753418,1246.296753 2221.896729,1247.574829 2217.880859,1241.772095 
	C2127.382812,1111.006592 2036.835815,980.275085 1946.413086,849.457703 
	C1944.754639,847.058411 1943.700562,843.693909 1943.696411,840.777954 
	C1943.557861,742.286194 1943.581177,643.794189 1943.581177,545.302185 
	C1943.581177,543.543884 1943.581177,541.785522 1943.581177,538.863464 
	C2035.541992,587.331116 2126.501221,635.270935 2218.155273,683.576782 
	C2218.155273,681.026489 2218.155518,679.397644 2218.155518,677.768860 
	C2218.155762,630.772705 2218.090088,583.776245 2218.263184,536.780701 
	C2218.279541,532.365967 2217.020752,530.063110 2213.047607,527.953186 
	C2116.673828,476.776489 2020.381958,425.445343 1924.077759,374.137695 
	C1920.805542,372.394379 1917.557739,370.605560 1914.077393,368.718018 
	C1995.210205,310.033295 2002.972046,200.568069 1943.175781,131.019958 
	C1884.761841,63.079670 1779.346069,56.842678 1712.104858,118.938591 
	C1679.550415,149.002060 1662.116943,186.851379 1660.984375,231.288406 
	C1659.466797,290.832001 1685.008301,337.026367 1732.996094,371.646942 
	C1731.971558,372.322296 1731.157837,372.891083 1730.313843,373.410583 
	C1669.494019,410.845764 1608.663452,448.263306 1547.853638,485.714905 
	C1520.499390,502.561951 1493.186523,519.476135 1465.149292,536.615601 
	C1386.970093,578.619324 1308.790771,620.623047 1230.164673,662.866821 
	C1230.164673,661.325134 1230.030273,660.492310 1230.184204,659.716675 
	C1235.206177,634.424622 1240.295410,609.145813 1245.285400,583.847534 
	C1247.864502,570.772034 1250.185059,557.864685 1260.630493,547.886292 
	C1268.722168,540.156555 1275.681519,531.241638 1283.243164,522.742371 
	C1284.647217,524.255920 1285.870361,525.608276 1287.129150,526.926636 
	C1307.013184,547.751099 1330.562378,557.951233 1359.858887,553.138489 
	C1384.266479,549.128845 1400.579224,536.796753 1406.932617,512.065430 
	C1412.732056,489.489807 1414.131226,466.832886 1411.046753,443.778534 
	C1407.362305,416.239807 1398.819580,390.341187 1385.012817,366.255371 
	C1380.391846,358.194031 1373.283569,354.221771 1363.642334,355.893890 
	C1360.695190,356.404999 1357.704346,356.772064 1354.718628,356.934479 
	C1336.274780,357.937897 1317.821167,358.771881 1299.383301,359.870819 
	C1293.700806,360.209473 1288.773438,358.829620 1283.636597,356.347321 
	C1271.564331,350.513458 1259.506348,344.264893 1246.794067,340.224823 
	C1224.124023,333.020050 1200.379639,332.040405 1176.751831,330.677307 
	C1168.849609,330.221466 1162.839600,332.626770 1157.531738,338.037140 
	C1153.332397,342.317627 1148.863525,346.338989 1144.749268,350.697144 
	C1124.343140,372.312866 1100.151489,379.665680 1070.866821,372.634430 
	C1045.757202,366.605530 1020.074829,363.704376 994.142029,363.786469 
	C989.712402,363.800476 986.630676,365.017975 984.608093,369.337036 
	C968.813293,403.065613 967.680054,436.964386 983.064209,471.127869 
	C986.103394,477.877106 990.874146,483.168365 997.511169,486.462280 
	C1011.857971,493.582642 1026.653687,499.559540 1042.584351,502.064789 
	C1049.472656,503.148041 1056.456055,503.625916 1063.396240,504.378815 
	C1053.917358,508.763031 1044.298584,512.326721 1034.740967,516.047485 
	C1029.481445,518.095032 1024.196167,520.150940 1019.161560,522.679199 
	C1014.976257,524.780945 1014.802856,527.193298 1017.964722,530.525635 
	C1018.876709,531.486816 1019.886719,532.378723 1020.951721,533.167603 
	C1046.239990,551.898926 1073.308228,567.275574 1103.428833,576.899536 
	C1113.517334,580.122986 1123.589233,583.398254 1134.122437,586.796204 
	C1124.902710,611.440735 1115.849243,635.641052 1106.646606,660.240112 
	C1104.462280,659.416260 1102.604980,658.791992 1100.807617,658.026733 
	C1037.202393,630.943848 973.603455,603.845886 910.001709,576.754578 
	C884.330750,565.819885 858.655212,554.895752 832.526855,543.462097 
M1105.303711,1623.205933 
	C1124.320923,1640.758545 1161.040039,1645.157349 1179.501953,1622.506958 
	C1179.918945,1623.022949 1180.358398,1623.503662 1180.728027,1624.033447 
	C1187.525879,1633.778442 1195.792480,1637.212524 1205.406494,1634.273926 
	C1214.945801,1631.358154 1220.000000,1623.622070 1220.000244,1611.923218 
	C1220.001465,1558.115845 1220.006592,1504.308350 1219.980835,1450.500977 
	C1219.979858,1448.351074 1219.960449,1446.135498 1219.473389,1444.062500 
	C1216.897339,1433.102051 1207.794678,1426.832764 1196.420410,1428.017090 
	C1186.101562,1429.091675 1178.354736,1437.800659 1178.202271,1449.007812 
	C1178.018799,1462.498779 1178.157715,1475.994141 1178.156982,1489.487671 
	C1178.156860,1492.200073 1178.156860,1494.912476 1178.156860,1498.121338 
	C1154.393188,1480.237671 1122.222290,1485.937866 1103.942017,1502.766479 
	C1071.628296,1532.514404 1070.870361,1592.665894 1105.303711,1623.205933 
M190.998611,1492.500000 
	C190.998611,1525.312866 190.998520,1558.125610 190.998672,1590.938477 
	C190.998718,1598.600342 190.859116,1606.265503 191.031891,1613.923462 
	C191.316940,1626.557373 199.278732,1634.697632 211.520340,1635.136108 
	C224.539536,1635.602417 232.961777,1628.669312 234.084351,1615.779907 
	C234.761215,1608.008179 234.471710,1600.149414 234.543945,1592.328979 
	C234.603378,1585.894165 234.556076,1579.458374 234.556076,1572.558594 
	C237.004959,1572.558594 238.797806,1572.581665 240.589890,1572.554810 
	C252.404999,1572.378296 264.282501,1572.896729 276.021637,1571.856689 
	C298.759613,1569.842041 315.904816,1558.983276 325.367065,1537.569458 
	C329.956940,1527.182251 331.223511,1516.186523 331.037048,1504.898560 
	C330.501923,1472.502197 307.417694,1446.530273 275.091248,1444.168213 
	C254.212372,1442.642578 233.159836,1443.030151 212.195145,1443.310059 
	C198.823318,1443.488281 191.030777,1452.501221 191.001389,1466.015869 
	C190.982910,1474.510620 190.998367,1483.005249 190.998611,1492.500000 
M1721.909790,1634.996948 
	C1736.790405,1635.658447 1745.813354,1627.091064 1745.833252,1612.167847 
	C1745.867554,1586.510986 1745.918213,1560.853760 1745.822144,1535.197266 
	C1745.742676,1513.998779 1735.963989,1498.113037 1718.034912,1491.374634 
	C1699.723511,1484.492432 1681.508423,1485.356812 1663.907227,1494.350708 
	C1662.197266,1495.224487 1660.508667,1496.140015 1658.167603,1497.374878 
	C1658.167603,1495.027588 1658.167725,1493.416626 1658.167480,1491.805786 
	C1658.165283,1477.477905 1658.299805,1463.148315 1658.117310,1448.822754 
	C1657.970581,1437.292480 1650.110596,1428.771729 1639.354858,1427.979492 
	C1627.516602,1427.107422 1618.717163,1433.971680 1616.729980,1445.739990 
	C1616.344116,1448.024902 1616.179199,1450.373901 1616.177856,1452.693481 
	C1616.147339,1505.173462 1616.140259,1557.653564 1616.188965,1610.133545 
	C1616.191650,1613.112061 1616.440796,1616.144653 1617.036011,1619.057983 
	C1618.841553,1627.894897 1626.332031,1634.373047 1635.176514,1635.031982 
	C1648.522705,1636.026489 1658.068604,1627.154053 1658.137817,1613.367920 
	C1658.248291,1591.376831 1658.056396,1569.384033 1658.205688,1547.393433 
	C1658.305298,1532.733643 1666.894897,1523.225708 1680.121460,1522.610474 
	C1692.847046,1522.018433 1702.060303,1530.333008 1703.713135,1544.018799 
	C1704.011475,1546.489380 1703.983765,1549.007568 1703.986206,1551.504028 
	C1704.006592,1571.996216 1703.990601,1592.488525 1704.001709,1612.980713 
	C1704.008057,1624.734985 1709.549438,1631.851440 1721.909790,1634.996948 
M422.535004,1490.827881 
	C401.172668,1482.375366 375.215942,1488.424438 359.304993,1505.563110 
	C332.729523,1534.189209 330.478271,1581.603027 353.780762,1612.908569 
	C375.336914,1641.868042 418.124817,1646.527710 437.766235,1622.633667 
	C438.566467,1623.744385 439.327698,1624.797485 440.085358,1625.853271 
	C445.829926,1633.857300 454.845734,1637.048340 463.770508,1634.235596 
	C472.755859,1631.403931 478.134949,1623.864258 478.146606,1613.768311 
	C478.186249,1579.461548 478.193695,1545.154907 478.150574,1510.848145 
	C478.138306,1501.092529 472.690063,1493.526855 463.956665,1490.751343 
	C454.927551,1487.881958 445.832642,1491.005493 440.197449,1498.908447 
	C439.390503,1500.040039 438.573792,1501.164795 438.235260,1501.635010 
	C432.962158,1497.925659 428.105591,1494.509277 422.535004,1490.827881 
M928.577698,1636.076416 
	C936.671753,1633.662231 945.145996,1632.073608 952.740356,1628.574951 
	C958.899231,1625.737427 964.739990,1621.296753 969.393433,1616.323975 
	C975.925415,1609.343872 975.646912,1599.210449 970.189209,1592.487793 
	C964.751709,1585.789917 956.871155,1584.406860 947.647461,1588.576782 
	C942.500916,1590.903564 937.492554,1593.581421 932.227234,1595.590820 
	C920.138489,1600.204224 907.844055,1600.616333 895.656311,1595.977783 
	C886.296265,1592.415405 880.821655,1584.798096 881.266907,1576.170044 
	C894.870789,1576.170044 908.502319,1576.192749 922.133728,1576.163452 
	C935.125122,1576.135620 948.124634,1576.316162 961.105042,1575.909302 
	C970.839417,1575.604370 975.745789,1570.500488 976.003418,1560.760864 
	C976.147644,1555.306885 975.777283,1549.764160 974.934875,1544.371338 
	C968.838013,1505.343994 931.949280,1480.026001 893.476074,1488.657837 
	C865.514160,1494.931274 847.095703,1512.420898 839.211426,1539.592529 
	C831.105530,1567.528076 835.328430,1593.986328 855.572083,1615.964233 
	C875.202881,1637.276855 900.524170,1640.635864 928.577698,1636.076416 
M1947.621826,1493.837646 
	C1922.188843,1482.469360 1897.609741,1484.550171 1875.479370,1501.079224 
	C1849.481201,1520.497314 1841.005005,1547.605225 1846.662231,1578.976929 
	C1851.258545,1604.464233 1865.146240,1623.668823 1889.913940,1632.722778 
	C1916.715820,1642.520386 1943.052856,1638.744751 1967.942383,1625.584595 
	C1972.989868,1622.915894 1977.409546,1618.164673 1980.771729,1613.419067 
	C1985.483398,1606.769043 1984.135742,1597.366211 1978.992676,1591.640137 
	C1973.981934,1586.061279 1966.288330,1584.630981 1958.413086,1588.013062 
	C1952.922607,1590.371216 1947.628662,1593.208008 1942.074463,1595.392456 
	C1929.853149,1600.199097 1917.395630,1600.725708 1905.054443,1595.952148 
	C1896.340576,1592.581421 1890.948486,1586.344360 1890.132935,1576.168091 
	C1892.235474,1576.168091 1894.034424,1576.169189 1895.833496,1576.168091 
	C1919.819092,1576.153564 1943.806274,1576.302246 1967.789551,1576.058105 
	C1980.667236,1575.927002 1986.118652,1570.610229 1985.710449,1558.022583 
	C1984.805054,1530.094360 1973.430054,1508.013916 1947.621826,1493.837646 
M1296.967163,1488.311401 
	C1286.735596,1490.429199 1277.105347,1494.099731 1268.835938,1500.551025 
	C1242.724243,1520.921753 1233.674072,1547.929443 1239.834717,1579.870483 
	C1245.061401,1606.970093 1260.587769,1626.322144 1287.547119,1634.296387 
	C1312.960327,1641.813232 1337.733276,1638.132324 1360.902222,1625.555298 
	C1365.938599,1622.821289 1370.353516,1618.131836 1373.764160,1613.410645 
	C1378.446533,1606.929077 1377.080688,1597.367676 1371.938232,1591.616089 
	C1367.111938,1586.218506 1359.397339,1584.693237 1351.799438,1587.889404 
	C1346.898804,1589.951050 1342.180176,1592.442871 1337.298462,1594.552856 
	C1325.238770,1599.764893 1312.835205,1600.707764 1300.238281,1596.844360 
	C1289.765747,1593.632568 1283.522827,1585.889648 1283.416992,1576.170166 
	C1285.234619,1576.170166 1287.054077,1576.173462 1288.873657,1576.169678 
	C1313.371826,1576.118530 1337.871704,1576.227417 1362.367188,1575.940308 
	C1373.135742,1575.814087 1378.291992,1570.855103 1378.457520,1560.374023 
	C1378.875610,1533.902588 1368.999023,1512.257324 1346.676758,1497.323486 
	C1331.856079,1487.408203 1315.200439,1485.339478 1296.967163,1488.311401 
M629.687683,1619.815552 
	C641.263489,1630.420288 654.917664,1636.403320 670.527222,1637.569824 
	C692.825195,1639.236084 712.691101,1633.215576 727.631226,1616.083008 
	C749.388000,1591.133667 752.489441,1562.101929 741.673767,1531.916504 
	C732.222046,1505.537964 712.425659,1490.231812 684.298767,1487.510376 
	C657.793579,1484.945557 635.825623,1494.104858 620.269226,1516.277588 
	C600.273926,1544.777344 601.440796,1592.481934 629.687683,1619.815552 
M2098.456299,1488.948975 
	C2079.113525,1485.409790 2060.564209,1485.067017 2046.067261,1502.156982 
	C2045.462891,1501.320435 2044.904175,1500.548584 2044.347168,1499.775513 
	C2038.175903,1491.209473 2028.562744,1487.789795 2018.906128,1490.725464 
	C2009.973022,1493.441162 2004.277954,1501.015991 2004.223999,1511.632690 
	C2004.051147,1545.620728 2004.011475,1579.611328 2004.246704,1613.598633 
	C2004.328369,1625.385620 2012.194580,1634.003784 2022.609375,1634.999756 
	C2036.135864,1636.293213 2046.034546,1627.373413 2046.129028,1613.394165 
	C2046.277588,1591.402222 2046.116699,1569.408447 2046.189575,1547.415771 
	C2046.233032,1534.331299 2053.613770,1524.647949 2064.562012,1522.992310 
	C2080.263184,1520.617798 2091.710938,1530.574219 2091.801758,1546.960815 
	C2091.924561,1569.119629 2091.693115,1591.281006 2091.902344,1613.438599 
	C2092.025635,1626.497314 2100.813965,1635.271362 2112.972412,1635.157104 
	C2125.060059,1635.043457 2133.743652,1626.031250 2133.804688,1613.063110 
	C2133.927002,1587.072021 2134.035889,1561.078125 2133.788330,1535.088867 
	C2133.558350,1510.958740 2122.189209,1496.106323 2098.456299,1488.948975 
M1481.998169,1558.602417 
	C1482.341797,1564.742065 1482.125977,1570.973633 1483.116333,1577.007202 
	C1491.916138,1630.619507 1543.594238,1651.047119 1586.705078,1629.250732 
	C1591.759888,1626.695068 1596.288452,1621.971191 1599.516602,1617.206299 
	C1603.877930,1610.768311 1602.007324,1602.165039 1596.521484,1596.026733 
	C1591.468750,1590.373291 1585.562256,1589.224243 1577.509766,1592.048462 
	C1572.658203,1593.750000 1567.781982,1595.536011 1562.771606,1596.599976 
	C1547.681152,1599.804077 1536.608276,1595.867310 1529.791260,1585.139526 
	C1524.576660,1576.932983 1523.394775,1567.812744 1523.967651,1558.300415 
	C1525.229736,1537.342285 1539.199951,1525.195435 1559.886108,1527.897949 
	C1566.033447,1528.701050 1571.919556,1531.463867 1577.941406,1533.275146 
	C1589.252686,1536.677490 1598.821899,1530.970947 1601.182495,1519.453369 
	C1603.502319,1508.134644 1597.995239,1498.298218 1585.498413,1493.218262 
	C1568.375000,1486.257935 1550.604004,1484.794556 1532.691895,1489.711914 
	C1503.126221,1497.828369 1483.382935,1524.526978 1481.998169,1558.602417 
M776.966614,1629.550537 
	C779.363647,1631.015259 781.600098,1632.911255 784.184143,1633.873779 
	C799.093262,1639.426880 812.489807,1628.843872 812.527527,1611.229248 
	C812.641235,1558.094604 812.634338,1504.959473 812.434448,1451.825317 
	C812.417480,1447.318359 811.387451,1442.453735 809.476257,1438.391357 
	C805.572266,1430.092896 795.776184,1426.185547 786.580566,1428.310791 
	C776.758362,1430.580933 770.504089,1438.708008 770.484497,1450.164185 
	C770.391663,1504.298218 770.444885,1558.432617 770.456482,1612.566895 
	C770.457825,1618.771484 772.137207,1624.388428 776.966614,1629.550537 
M565.553528,1533.909180 
	C572.626465,1531.504517 579.804688,1529.366333 586.744263,1526.624146 
	C594.481384,1523.567017 599.272400,1518.081787 599.189026,1509.193359 
	C599.102600,1499.979492 595.133301,1493.154907 586.823059,1489.177124 
	C578.366760,1485.129272 570.111206,1486.855835 562.542542,1491.456543 
	C557.663391,1494.422363 553.384888,1498.376221 548.755371,1501.950684 
	C547.804749,1500.648682 546.885681,1499.284180 545.860962,1498.004150 
	C540.080444,1490.783081 529.853577,1487.865601 521.046814,1490.893555 
	C512.759888,1493.742798 507.213074,1501.449341 507.190033,1510.876953 
	C507.105743,1545.365234 507.105225,1579.853882 507.197479,1614.342163 
	C507.221100,1623.167236 512.699036,1630.950439 520.356628,1633.840210 
	C534.455383,1639.160767 548.839172,1629.366333 548.973999,1614.177246 
	C549.141052,1595.352783 548.983704,1576.525024 549.186462,1557.701172 
	C549.305969,1546.601807 553.650879,1538.029785 565.553528,1533.909180 
M1821.843750,1557.500000 
	C1821.844116,1542.017944 1821.965454,1526.534668 1821.806396,1511.054199 
	C1821.678833,1498.630737 1812.724731,1489.776978 1800.753418,1489.837280 
	C1788.658569,1489.898193 1780.029175,1498.721924 1780.012817,1511.261719 
	C1779.968018,1545.555176 1779.949951,1579.848755 1780.023193,1614.142090 
	C1780.050293,1626.841064 1789.584351,1635.697388 1802.223389,1635.071655 
	C1813.599854,1634.508423 1821.754883,1625.636353 1821.819580,1613.436035 
	C1821.916504,1595.124512 1821.844116,1576.812012 1821.843750,1557.500000 
M1818.809082,1470.306763 
	C1819.534668,1469.397949 1820.295166,1468.514404 1820.980591,1467.576294 
	C1827.938965,1458.051636 1827.385742,1444.935425 1819.673462,1436.279297 
	C1811.870483,1427.521240 1798.907227,1425.264282 1788.780884,1430.900757 
	C1778.420410,1436.667603 1773.742676,1448.411621 1776.917480,1459.899658 
	C1781.423340,1476.203003 1803.064331,1484.679932 1818.809082,1470.306763 
z"/>
<path fill="#00B5E2" opacity="1.000000" stroke="none" 
	d="
M1465.854858,536.359863 
	C1493.186523,519.476135 1520.499390,502.561951 1547.853638,485.714905 
	C1608.663452,448.263306 1669.494019,410.845764 1730.313843,373.410583 
	C1731.157837,372.891083 1731.971558,372.322296 1732.996094,371.646942 
	C1685.008301,337.026367 1659.466797,290.832001 1660.984375,231.288406 
	C1662.116943,186.851379 1679.550415,149.002060 1712.104858,118.938591 
	C1779.346069,56.842678 1884.761841,63.079670 1943.175781,131.019958 
	C2002.972046,200.568069 1995.210205,310.033295 1914.077393,368.718018 
	C1917.557739,370.605560 1920.805542,372.394379 1924.077759,374.137695 
	C2020.381958,425.445343 2116.673828,476.776489 2213.047607,527.953186 
	C2217.020752,530.063110 2218.279541,532.365967 2218.263184,536.780701 
	C2218.090088,583.776245 2218.155762,630.772705 2218.155518,677.768860 
	C2218.155518,679.397644 2218.155273,681.026489 2218.155273,683.576782 
	C2126.501221,635.270935 2035.541992,587.331116 1943.581177,538.863464 
	C1943.581177,541.785522 1943.581177,543.543884 1943.581177,545.302185 
	C1943.581177,643.794189 1943.557861,742.286194 1943.696411,840.777954 
	C1943.700562,843.693909 1944.754639,847.058411 1946.413086,849.457703 
	C2036.835815,980.275085 2127.382812,1111.006592 2217.880859,1241.772095 
	C2221.896729,1247.574829 2222.753418,1246.296753 2216.475098,1251.317505 
	C2182.514160,1278.475098 2148.565430,1305.647217 2114.609619,1332.810791 
	C2113.057129,1334.052490 2111.479004,1335.261841 2109.430664,1336.863159 
	C2063.547852,1273.004883 2017.830200,1209.363159 1972.098267,1145.731567 
	C1926.358032,1082.088501 1880.603394,1018.455566 1834.570068,954.421692 
	C1750.234253,1083.590210 1666.270264,1212.188843 1582.074707,1341.142334 
	C1544.295898,1308.766357 1507.019287,1276.820801 1469.393311,1244.506104 
	C1469.016479,1243.836548 1468.999512,1243.535400 1469.266602,1243.013550 
	C1495.837891,1200.542236 1522.138428,1158.292603 1548.433105,1116.039429 
	C1602.432739,1029.267334 1656.442017,942.501099 1710.358154,855.677124 
	C1711.764282,853.412842 1712.889160,850.511108 1712.892456,847.905151 
	C1713.018921,746.245300 1713.000854,644.585266 1712.983887,542.925293 
	C1712.983765,541.737610 1712.753540,540.549988 1712.601318,539.077209 
	C1710.828735,540.096802 1709.525146,540.820129 1708.246948,541.585876 
	C1649.707397,576.660034 1591.181274,611.756836 1532.626343,646.805542 
	C1510.498413,660.050537 1488.304565,673.185547 1466.079224,685.882141 
	C1466.011719,669.608948 1466.016357,653.824280 1465.997314,638.039612 
	C1465.956421,604.146362 1465.903076,570.253113 1465.854858,536.359863 
z"/>
<path fill="#00B5E2" opacity="1.000000" stroke="none" 
	d="
M828.886963,1245.062744 
	C793.302002,1277.148315 757.717041,1309.234009 721.725891,1341.685913 
	C635.323242,1212.886597 549.204346,1084.510254 462.821228,955.740173 
	C369.400513,1086.793335 276.364960,1217.306152 183.125259,1348.105347 
	C147.136978,1317.484375 111.533882,1287.191040 75.774933,1256.765137 
	C89.268387,1236.294556 102.539604,1216.154297 115.817795,1196.018555 
	C189.504623,1084.276733 263.179749,972.527222 336.938538,860.832947 
	C339.438660,857.046997 340.504181,853.304565 340.499237,848.768372 
	C340.395874,753.608582 340.420197,658.448792 340.419464,563.288940 
	C340.419464,561.309631 340.419464,559.330322 340.419464,556.080383 
	C253.648499,599.588379 167.696945,642.685547 81.179977,686.066223 
	C81.042740,684.200500 80.853058,682.821228 80.852615,681.442017 
	C80.837402,634.612061 80.881638,587.781982 80.756691,540.952393 
	C80.747322,537.440125 81.924004,535.736450 84.977409,534.129089 
	C181.238464,483.457092 277.445007,432.681610 373.655792,381.914093 
	C374.513092,381.461731 375.314880,380.904144 376.525177,380.160645 
	C319.579651,346.670746 289.015686,297.847015 290.186584,231.403656 
	C290.935547,188.903580 307.405548,152.261932 337.592224,122.461311 
	C405.202515,55.715717 513.018982,61.844704 572.760254,131.855820 
	C605.826050,170.605743 618.077820,215.798019 608.937439,265.978271 
	C599.818604,316.040588 571.524231,352.902985 527.441833,378.656372 
	C629.405518,433.736725 730.966187,488.599396 832.691284,544.181702 
	C832.816711,590.877075 832.777771,636.852783 832.424072,682.732178 
	C745.573059,635.814148 659.036804,588.992554 572.059326,541.932190 
	C571.968628,543.865723 571.855835,545.147949 571.855774,546.430237 
	C571.847107,646.385864 571.830627,746.341553 571.944214,846.297058 
	C571.947021,848.754089 572.895508,851.537842 574.249268,853.618408 
	C640.772156,955.859436 707.376038,1058.047607 774.001282,1160.221924 
	C792.262146,1188.226196 810.617432,1216.168701 828.922852,1244.370483 
	C828.916382,1244.601440 828.886963,1245.062744 828.886963,1245.062744 
z"/>
<path fill="#D45D00" opacity="1.000000" stroke="none" 
	d="
M832.738831,682.828552 
	C832.777771,636.852783 832.816711,590.877075 832.918701,544.434082 
	C858.655212,554.895752 884.330750,565.819885 910.001709,576.754578 
	C973.603455,603.845886 1037.202393,630.943848 1100.807617,658.026733 
	C1102.604980,658.791992 1104.462280,659.416260 1106.646606,660.240112 
	C1115.849243,635.641052 1124.902710,611.440735 1134.122437,586.796204 
	C1123.589233,583.398254 1113.517334,580.122986 1103.428833,576.899536 
	C1073.308228,567.275574 1046.239990,551.898926 1020.951721,533.167603 
	C1019.886719,532.378723 1018.876709,531.486816 1017.964722,530.525635 
	C1014.802856,527.193298 1014.976257,524.780945 1019.161560,522.679199 
	C1024.196167,520.150940 1029.481445,518.095032 1034.740967,516.047485 
	C1044.298584,512.326721 1053.917358,508.763031 1063.396240,504.378815 
	C1056.456055,503.625916 1049.472656,503.148041 1042.584351,502.064789 
	C1026.653687,499.559540 1011.857971,493.582642 997.511169,486.462280 
	C990.874146,483.168365 986.103394,477.877106 983.064209,471.127869 
	C967.680054,436.964386 968.813293,403.065613 984.608093,369.337036 
	C986.630676,365.017975 989.712402,363.800476 994.142029,363.786469 
	C1020.074829,363.704376 1045.757202,366.605530 1070.866821,372.634430 
	C1100.151489,379.665680 1124.343140,372.312866 1144.749268,350.697144 
	C1148.863525,346.338989 1153.332397,342.317627 1157.531738,338.037140 
	C1162.839600,332.626770 1168.849609,330.221466 1176.751831,330.677307 
	C1200.379639,332.040405 1224.124023,333.020050 1246.794067,340.224823 
	C1259.506348,344.264893 1271.564331,350.513458 1283.636597,356.347321 
	C1288.773438,358.829620 1293.700806,360.209473 1299.383301,359.870819 
	C1317.821167,358.771881 1336.274780,357.937897 1354.718628,356.934479 
	C1357.704346,356.772064 1360.695190,356.404999 1363.642334,355.893890 
	C1373.283569,354.221771 1380.391846,358.194031 1385.012817,366.255371 
	C1398.819580,390.341187 1407.362305,416.239807 1411.046753,443.778534 
	C1414.131226,466.832886 1412.732056,489.489807 1406.932617,512.065430 
	C1400.579224,536.796753 1384.266479,549.128845 1359.858887,553.138489 
	C1330.562378,557.951233 1307.013184,547.751099 1287.129150,526.926636 
	C1285.870361,525.608276 1284.647217,524.255920 1283.243164,522.742371 
	C1275.681519,531.241638 1268.722168,540.156555 1260.630493,547.886292 
	C1250.185059,557.864685 1247.864502,570.772034 1245.285400,583.847534 
	C1240.295410,609.145813 1235.206177,634.424622 1230.184204,659.716675 
	C1230.030273,660.492310 1230.164673,661.325134 1230.164673,662.866821 
	C1308.790771,620.623047 1386.970093,578.619324 1465.502075,536.487732 
	C1465.903076,570.253113 1465.956421,604.146362 1465.997314,638.039612 
	C1466.016357,653.824280 1466.011719,669.608948 1465.855835,686.119873 
	C1464.557129,687.536926 1463.438110,688.259521 1462.280640,688.914062 
	C1399.891113,724.199036 1337.508179,759.495789 1275.093628,794.736755 
	C1266.794312,799.422791 1260.983032,805.787903 1257.760254,815.037415 
	C1246.778076,846.557007 1242.646851,878.952576 1243.460083,912.217529 
	C1244.143188,940.164612 1249.898682,967.370667 1254.566528,994.740540 
	C1254.915283,996.785950 1257.544434,999.794556 1259.397583,1000.019958 
	C1275.910767,1002.028015 1292.446777,1003.969360 1309.074097,1000.479919 
	C1335.912720,994.847595 1355.734741,979.255676 1372.370972,958.138489 
	C1380.339844,948.023315 1390.134155,939.325928 1399.303467,930.188904 
	C1402.095459,927.406555 1406.191528,925.302490 1409.653076,927.960266 
	C1412.200928,929.916565 1414.611572,933.755310 1414.730591,936.845825 
	C1415.062134,945.451965 1415.178223,954.295715 1413.592896,962.709106 
	C1403.645630,1015.499023 1375.051392,1053.835938 1324.979004,1075.153076 
	C1319.850464,1077.336426 1314.901855,1079.942017 1309.458740,1082.548584 
	C1310.773560,1083.995728 1311.609131,1084.990967 1312.521973,1085.909424 
	C1337.892944,1111.437500 1363.289551,1136.939941 1388.641724,1162.486572 
	C1402.840088,1176.793945 1416.924561,1191.214355 1431.138184,1205.506470 
	C1443.700439,1218.137939 1456.370605,1230.662109 1468.993164,1243.233643 
	C1468.999512,1243.535400 1469.016479,1243.836548 1469.076050,1244.360596 
	C1455.035278,1258.989868 1440.936523,1273.370361 1426.896362,1287.807739 
	C1410.879395,1304.277832 1394.940918,1320.824097 1378.911377,1337.281982 
	C1374.257202,1342.060425 1372.040894,1341.996094 1367.200317,1337.366821 
	C1323.767212,1295.830200 1280.360840,1254.265259 1236.898193,1212.759399 
	C1210.420166,1187.473389 1183.857056,1162.276733 1156.891968,1136.621216 
	C1082.414673,1205.237915 1008.054993,1273.746216 933.221130,1342.691406 
	C898.520203,1310.249512 863.924500,1277.906128 829.107910,1245.312744 
	C828.886963,1245.062744 828.916382,1244.601440 829.229919,1244.215332 
	C843.771423,1230.531372 858.077393,1217.315674 872.210449,1203.917725 
	C898.428223,1179.063843 924.583191,1154.143066 950.693298,1129.175903 
	C977.765259,1103.288940 1004.735596,1077.295654 1031.803955,1051.404785 
	C1034.566772,1048.762207 1035.624390,1045.906250 1035.210815,1042.063843 
	C1033.519409,1026.348999 1032.052979,1010.609985 1030.491821,994.881042 
	C1027.647339,966.224060 1024.754639,937.594177 1027.060547,908.704590 
	C1029.960205,872.374756 1032.405396,836.008911 1035.242920,799.673889 
	C1035.651001,794.448669 1033.961426,791.328979 1029.354980,788.873779 
	C987.696106,766.669800 946.083984,744.377258 904.526855,721.983093 
	C880.532166,709.052917 856.663940,695.887878 832.738831,682.828552 
z"/>
<path fill="#D45E01" opacity="1.000000" stroke="none" 
	d="
M1105.018799,1622.994141 
	C1070.870361,1592.665894 1071.628296,1532.514404 1103.942017,1502.766479 
	C1122.222290,1485.937866 1154.393188,1480.237671 1178.156860,1498.121338 
	C1178.156860,1494.912476 1178.156860,1492.200073 1178.156982,1489.487671 
	C1178.157715,1475.994141 1178.018799,1462.498779 1178.202271,1449.007812 
	C1178.354736,1437.800659 1186.101562,1429.091675 1196.420410,1428.017090 
	C1207.794678,1426.832764 1216.897339,1433.102051 1219.473389,1444.062500 
	C1219.960449,1446.135498 1219.979858,1448.351074 1219.980835,1450.500977 
	C1220.006592,1504.308350 1220.001465,1558.115845 1220.000244,1611.923218 
	C1220.000000,1623.622070 1214.945801,1631.358154 1205.406494,1634.273926 
	C1195.792480,1637.212524 1187.525879,1633.778442 1180.728027,1624.033447 
	C1180.358398,1623.503662 1179.918945,1623.022949 1179.501953,1622.506958 
	C1161.040039,1645.157349 1124.320923,1640.758545 1105.018799,1622.994141 
M1170.371582,1587.814209 
	C1180.360962,1572.891846 1180.856201,1557.286743 1173.087769,1541.449219 
	C1168.507202,1532.110840 1160.318115,1527.442749 1150.052368,1527.347168 
	C1140.013916,1527.253662 1131.963135,1531.654419 1126.971191,1540.559814 
	C1119.929199,1553.121948 1119.452637,1566.394287 1124.640137,1579.572998 
	C1132.514648,1599.577881 1154.930420,1603.770386 1170.371582,1587.814209 
z"/>
<path fill="#D45E02" opacity="1.000000" stroke="none" 
	d="
M190.998611,1492.000000 
	C190.998367,1483.005249 190.982910,1474.510620 191.001389,1466.015869 
	C191.030777,1452.501221 198.823318,1443.488281 212.195145,1443.310059 
	C233.159836,1443.030151 254.212372,1442.642578 275.091248,1444.168213 
	C307.417694,1446.530273 330.501923,1472.502197 331.037048,1504.898560 
	C331.223511,1516.186523 329.956940,1527.182251 325.367065,1537.569458 
	C315.904816,1558.983276 298.759613,1569.842041 276.021637,1571.856689 
	C264.282501,1572.896729 252.404999,1572.378296 240.589890,1572.554810 
	C238.797806,1572.581665 237.004959,1572.558594 234.556076,1572.558594 
	C234.556076,1579.458374 234.603378,1585.894165 234.543945,1592.328979 
	C234.471710,1600.149414 234.761215,1608.008179 234.084351,1615.779907 
	C232.961777,1628.669312 224.539536,1635.602417 211.520340,1635.136108 
	C199.278732,1634.697632 191.316940,1626.557373 191.031891,1613.923462 
	C190.859116,1606.265503 190.998718,1598.600342 190.998672,1590.938477 
	C190.998520,1558.125610 190.998611,1525.312866 190.998611,1492.000000 
M234.550232,1503.500977 
	C234.550232,1513.559937 234.550232,1523.618896 234.550232,1533.025757 
	C245.173401,1533.025757 255.064377,1533.923828 264.720154,1532.800415 
	C277.053497,1531.365601 285.653046,1520.747681 285.996582,1508.756592 
	C286.365082,1495.894409 279.481232,1485.381104 267.390961,1483.406982 
	C256.712097,1481.663330 245.684387,1482.056396 234.549957,1481.492798 
	C234.549957,1489.236572 234.549957,1495.869263 234.550232,1503.500977 
z"/>
<path fill="#D45E02" opacity="1.000000" stroke="none" 
	d="
M1721.478027,1634.961914 
	C1709.549438,1631.851440 1704.008057,1624.734985 1704.001709,1612.980713 
	C1703.990601,1592.488525 1704.006592,1571.996216 1703.986206,1551.504028 
	C1703.983765,1549.007568 1704.011475,1546.489380 1703.713135,1544.018799 
	C1702.060303,1530.333008 1692.847046,1522.018433 1680.121460,1522.610474 
	C1666.894897,1523.225708 1658.305298,1532.733643 1658.205688,1547.393433 
	C1658.056396,1569.384033 1658.248291,1591.376831 1658.137817,1613.367920 
	C1658.068604,1627.154053 1648.522705,1636.026489 1635.176514,1635.031982 
	C1626.332031,1634.373047 1618.841553,1627.894897 1617.036011,1619.057983 
	C1616.440796,1616.144653 1616.191650,1613.112061 1616.188965,1610.133545 
	C1616.140259,1557.653564 1616.147339,1505.173462 1616.177856,1452.693481 
	C1616.179199,1450.373901 1616.344116,1448.024902 1616.729980,1445.739990 
	C1618.717163,1433.971680 1627.516602,1427.107422 1639.354858,1427.979492 
	C1650.110596,1428.771729 1657.970581,1437.292480 1658.117310,1448.822754 
	C1658.299805,1463.148315 1658.165283,1477.477905 1658.167480,1491.805786 
	C1658.167725,1493.416626 1658.167603,1495.027588 1658.167603,1497.374878 
	C1660.508667,1496.140015 1662.197266,1495.224487 1663.907227,1494.350708 
	C1681.508423,1485.356812 1699.723511,1484.492432 1718.034912,1491.374634 
	C1735.963989,1498.113037 1745.742676,1513.998779 1745.822144,1535.197266 
	C1745.918213,1560.853760 1745.867554,1586.510986 1745.833252,1612.167847 
	C1745.813354,1627.091064 1736.790405,1635.658447 1721.478027,1634.961914 
z"/>
<path fill="#D45E02" opacity="1.000000" stroke="none" 
	d="
M422.892029,1490.960449 
	C428.105591,1494.509277 432.962158,1497.925659 438.235260,1501.635010 
	C438.573792,1501.164795 439.390503,1500.040039 440.197449,1498.908447 
	C445.832642,1491.005493 454.927551,1487.881958 463.956665,1490.751343 
	C472.690063,1493.526855 478.138306,1501.092529 478.150574,1510.848145 
	C478.193695,1545.154907 478.186249,1579.461548 478.146606,1613.768311 
	C478.134949,1623.864258 472.755859,1631.403931 463.770508,1634.235596 
	C454.845734,1637.048340 445.829926,1633.857300 440.085358,1625.853271 
	C439.327698,1624.797485 438.566467,1623.744385 437.766235,1622.633667 
	C418.124817,1646.527710 375.336914,1641.868042 353.780762,1612.908569 
	C330.478271,1581.603027 332.729523,1534.189209 359.304993,1505.563110 
	C375.215942,1488.424438 401.172668,1482.375366 422.892029,1490.960449 
M379.799347,1560.593750 
	C379.375793,1568.376465 380.590424,1575.852905 384.255402,1582.791504 
	C389.159363,1592.075806 396.817444,1597.284668 407.419586,1597.506714 
	C418.000275,1597.728394 426.293457,1593.155273 431.166901,1583.826172 
	C438.683807,1569.436523 438.810211,1554.572021 430.752594,1540.428345 
	C420.907593,1523.147217 396.864532,1522.797607 385.887146,1539.382568 
	C381.835052,1545.504517 380.009949,1552.336426 379.799347,1560.593750 
z"/>
<path fill="#D45E02" opacity="1.000000" stroke="none" 
	d="
M928.146973,1636.125977 
	C900.524170,1640.635864 875.202881,1637.276855 855.572083,1615.964233 
	C835.328430,1593.986328 831.105530,1567.528076 839.211426,1539.592529 
	C847.095703,1512.420898 865.514160,1494.931274 893.476074,1488.657837 
	C931.949280,1480.026001 968.838013,1505.343994 974.934875,1544.371338 
	C975.777283,1549.764160 976.147644,1555.306885 976.003418,1560.760864 
	C975.745789,1570.500488 970.839417,1575.604370 961.105042,1575.909302 
	C948.124634,1576.316162 935.125122,1576.135620 922.133728,1576.163452 
	C908.502319,1576.192749 894.870789,1576.170044 881.266907,1576.170044 
	C880.821655,1584.798096 886.296265,1592.415405 895.656311,1595.977783 
	C907.844055,1600.616333 920.138489,1600.204224 932.227234,1595.590820 
	C937.492554,1593.581421 942.500916,1590.903564 947.647461,1588.576782 
	C956.871155,1584.406860 964.751709,1585.789917 970.189209,1592.487793 
	C975.646912,1599.210449 975.925415,1609.343872 969.393433,1616.323975 
	C964.739990,1621.296753 958.899231,1625.737427 952.740356,1628.574951 
	C945.145996,1632.073608 936.671753,1633.662231 928.146973,1636.125977 
M896.819519,1525.072632 
	C887.997070,1529.775757 882.291931,1536.678223 880.735413,1547.039307 
	C898.892029,1547.039307 916.403320,1547.039307 933.929565,1547.039307 
	C933.086975,1529.742798 914.145691,1518.366699 896.819519,1525.072632 
z"/>
<path fill="#D45E02" opacity="1.000000" stroke="none" 
	d="
M1947.968506,1493.976318 
	C1973.430054,1508.013916 1984.805054,1530.094360 1985.710449,1558.022583 
	C1986.118652,1570.610229 1980.667236,1575.927002 1967.789551,1576.058105 
	C1943.806274,1576.302246 1919.819092,1576.153564 1895.833496,1576.168091 
	C1894.034424,1576.169189 1892.235474,1576.168091 1890.132935,1576.168091 
	C1890.948486,1586.344360 1896.340576,1592.581421 1905.054443,1595.952148 
	C1917.395630,1600.725708 1929.853149,1600.199097 1942.074463,1595.392456 
	C1947.628662,1593.208008 1952.922607,1590.371216 1958.413086,1588.013062 
	C1966.288330,1584.630981 1973.981934,1586.061279 1978.992676,1591.640137 
	C1984.135742,1597.366211 1985.483398,1606.769043 1980.771729,1613.419067 
	C1977.409546,1618.164673 1972.989868,1622.915894 1967.942383,1625.584595 
	C1943.052856,1638.744751 1916.715820,1642.520386 1889.913940,1632.722778 
	C1865.146240,1623.668823 1851.258545,1604.464233 1846.662231,1578.976929 
	C1841.005005,1547.605225 1849.481201,1520.497314 1875.479370,1501.079224 
	C1897.609741,1484.550171 1922.188843,1482.469360 1947.968506,1493.976318 
M1893.959229,1547.548462 
	C1910.517090,1547.548462 1927.074951,1547.548462 1943.892212,1547.548462 
	C1942.562378,1538.530640 1938.366699,1532.273560 1931.908081,1527.681641 
	C1912.886353,1514.157471 1893.879517,1529.748657 1890.459839,1544.382690 
	C1889.856812,1546.962646 1890.627441,1547.797974 1893.959229,1547.548462 
z"/>
<path fill="#D45E02" opacity="1.000000" stroke="none" 
	d="
M1297.386963,1488.218506 
	C1315.200439,1485.339478 1331.856079,1487.408203 1346.676758,1497.323486 
	C1368.999023,1512.257324 1378.875610,1533.902588 1378.457520,1560.374023 
	C1378.291992,1570.855103 1373.135742,1575.814087 1362.367188,1575.940308 
	C1337.871704,1576.227417 1313.371826,1576.118530 1288.873657,1576.169678 
	C1287.054077,1576.173462 1285.234619,1576.170166 1283.416992,1576.170166 
	C1283.522827,1585.889648 1289.765747,1593.632568 1300.238281,1596.844360 
	C1312.835205,1600.707764 1325.238770,1599.764893 1337.298462,1594.552856 
	C1342.180176,1592.442871 1346.898804,1589.951050 1351.799438,1587.889404 
	C1359.397339,1584.693237 1367.111938,1586.218506 1371.938232,1591.616089 
	C1377.080688,1597.367676 1378.446533,1606.929077 1373.764160,1613.410645 
	C1370.353516,1618.131836 1365.938599,1622.821289 1360.902222,1625.555298 
	C1337.733276,1638.132324 1312.960327,1641.813232 1287.547119,1634.296387 
	C1260.587769,1626.322144 1245.061401,1606.970093 1239.834717,1579.870483 
	C1233.674072,1547.929443 1242.724243,1520.921753 1268.835938,1500.551025 
	C1277.105347,1494.099731 1286.735596,1490.429199 1297.386963,1488.218506 
M1335.361450,1541.235718 
	C1329.412109,1527.556641 1317.356567,1520.460938 1304.587524,1523.122437 
	C1293.655396,1525.401001 1283.581177,1536.896118 1283.496826,1547.150391 
	C1301.173218,1547.150391 1318.847046,1547.150391 1336.886597,1547.150391 
	C1336.426147,1545.097534 1336.069946,1543.508789 1335.361450,1541.235718 
z"/>
<path fill="#D45E02" opacity="1.000000" stroke="none" 
	d="
M629.428650,1619.575928 
	C601.440796,1592.481934 600.273926,1544.777344 620.269226,1516.277588 
	C635.825623,1494.104858 657.793579,1484.945557 684.298767,1487.510376 
	C712.425659,1490.231812 732.222046,1505.537964 741.673767,1531.916504 
	C752.489441,1562.101929 749.388000,1591.133667 727.631226,1616.083008 
	C712.691101,1633.215576 692.825195,1639.236084 670.527222,1637.569824 
	C654.917664,1636.403320 641.263489,1630.420288 629.428650,1619.575928 
M666.309875,1595.376343 
	C680.675598,1600.515625 693.792908,1596.112061 700.428040,1583.276733 
	C707.453613,1569.686401 707.320862,1555.623779 700.663025,1541.976074 
	C695.968201,1532.352295 687.622253,1527.296143 676.890259,1527.342407 
	C666.161987,1527.388794 657.742004,1532.441406 653.353027,1542.218628 
	C650.758484,1547.998413 648.907593,1554.599243 648.744202,1560.883545 
	C648.379211,1574.917114 651.733398,1587.756958 666.309875,1595.376343 
z"/>
<path fill="#D45E02" opacity="1.000000" stroke="none" 
	d="
M2098.864990,1489.015015 
	C2122.189209,1496.106323 2133.558350,1510.958740 2133.788330,1535.088867 
	C2134.035889,1561.078125 2133.927002,1587.072021 2133.804688,1613.063110 
	C2133.743652,1626.031250 2125.060059,1635.043457 2112.972412,1635.157104 
	C2100.813965,1635.271362 2092.025635,1626.497314 2091.902344,1613.438599 
	C2091.693115,1591.281006 2091.924561,1569.119629 2091.801758,1546.960815 
	C2091.710938,1530.574219 2080.263184,1520.617798 2064.562012,1522.992310 
	C2053.613770,1524.647949 2046.233032,1534.331299 2046.189575,1547.415771 
	C2046.116699,1569.408447 2046.277588,1591.402222 2046.129028,1613.394165 
	C2046.034546,1627.373413 2036.135864,1636.293213 2022.609375,1634.999756 
	C2012.194580,1634.003784 2004.328369,1625.385620 2004.246704,1613.598633 
	C2004.011475,1579.611328 2004.051147,1545.620728 2004.223999,1511.632690 
	C2004.277954,1501.015991 2009.973022,1493.441162 2018.906128,1490.725464 
	C2028.562744,1487.789795 2038.175903,1491.209473 2044.347168,1499.775513 
	C2044.904175,1500.548584 2045.462891,1501.320435 2046.067261,1502.156982 
	C2060.564209,1485.067017 2079.113525,1485.409790 2098.864990,1489.015015 
z"/>
<path fill="#D45E02" opacity="1.000000" stroke="none" 
	d="
M1481.998291,1558.121094 
	C1483.382935,1524.526978 1503.126221,1497.828369 1532.691895,1489.711914 
	C1550.604004,1484.794556 1568.375000,1486.257935 1585.498413,1493.218262 
	C1597.995239,1498.298218 1603.502319,1508.134644 1601.182495,1519.453369 
	C1598.821899,1530.970947 1589.252686,1536.677490 1577.941406,1533.275146 
	C1571.919556,1531.463867 1566.033447,1528.701050 1559.886108,1527.897949 
	C1539.199951,1525.195435 1525.229736,1537.342285 1523.967651,1558.300415 
	C1523.394775,1567.812744 1524.576660,1576.932983 1529.791260,1585.139526 
	C1536.608276,1595.867310 1547.681152,1599.804077 1562.771606,1596.599976 
	C1567.781982,1595.536011 1572.658203,1593.750000 1577.509766,1592.048462 
	C1585.562256,1589.224243 1591.468750,1590.373291 1596.521484,1596.026733 
	C1602.007324,1602.165039 1603.877930,1610.768311 1599.516602,1617.206299 
	C1596.288452,1621.971191 1591.759888,1626.695068 1586.705078,1629.250732 
	C1543.594238,1651.047119 1491.916138,1630.619507 1483.116333,1577.007202 
	C1482.125977,1570.973633 1482.341797,1564.742065 1481.998291,1558.121094 
z"/>
<path fill="#D45F03" opacity="1.000000" stroke="none" 
	d="
M776.708740,1629.292603 
	C772.137207,1624.388428 770.457825,1618.771484 770.456482,1612.566895 
	C770.444885,1558.432617 770.391663,1504.298218 770.484497,1450.164185 
	C770.504089,1438.708008 776.758362,1430.580933 786.580566,1428.310791 
	C795.776184,1426.185547 805.572266,1430.092896 809.476257,1438.391357 
	C811.387451,1442.453735 812.417480,1447.318359 812.434448,1451.825317 
	C812.634338,1504.959473 812.641235,1558.094604 812.527527,1611.229248 
	C812.489807,1628.843872 799.093262,1639.426880 784.184143,1633.873779 
	C781.600098,1632.911255 779.363647,1631.015259 776.708740,1629.292603 
z"/>
<path fill="#D45E02" opacity="1.000000" stroke="none" 
	d="
M565.181274,1534.007812 
	C553.650879,1538.029785 549.305969,1546.601807 549.186462,1557.701172 
	C548.983704,1576.525024 549.141052,1595.352783 548.973999,1614.177246 
	C548.839172,1629.366333 534.455383,1639.160767 520.356628,1633.840210 
	C512.699036,1630.950439 507.221100,1623.167236 507.197479,1614.342163 
	C507.105225,1579.853882 507.105743,1545.365234 507.190033,1510.876953 
	C507.213074,1501.449341 512.759888,1493.742798 521.046814,1490.893555 
	C529.853577,1487.865601 540.080444,1490.783081 545.860962,1498.004150 
	C546.885681,1499.284180 547.804749,1500.648682 548.755371,1501.950684 
	C553.384888,1498.376221 557.663391,1494.422363 562.542542,1491.456543 
	C570.111206,1486.855835 578.366760,1485.129272 586.823059,1489.177124 
	C595.133301,1493.154907 599.102600,1499.979492 599.189026,1509.193359 
	C599.272400,1518.081787 594.481384,1523.567017 586.744263,1526.624146 
	C579.804688,1529.366333 572.626465,1531.504517 565.181274,1534.007812 
z"/>
<path fill="#D45E02" opacity="1.000000" stroke="none" 
	d="
M1821.843750,1558.000000 
	C1821.844116,1576.812012 1821.916504,1595.124512 1821.819580,1613.436035 
	C1821.754883,1625.636353 1813.599854,1634.508423 1802.223389,1635.071655 
	C1789.584351,1635.697388 1780.050293,1626.841064 1780.023193,1614.142090 
	C1779.949951,1579.848755 1779.968018,1545.555176 1780.012817,1511.261719 
	C1780.029175,1498.721924 1788.658569,1489.898193 1800.753418,1489.837280 
	C1812.724731,1489.776978 1821.678833,1498.630737 1821.806396,1511.054199 
	C1821.965454,1526.534668 1821.844116,1542.017944 1821.843750,1558.000000 
z"/>
<path fill="#D45F03" opacity="1.000000" stroke="none" 
	d="
M1818.550049,1470.555420 
	C1803.064331,1484.679932 1781.423340,1476.203003 1776.917480,1459.899658 
	C1773.742676,1448.411621 1778.420410,1436.667603 1788.780884,1430.900757 
	C1798.907227,1425.264282 1811.870483,1427.521240 1819.673462,1436.279297 
	C1827.385742,1444.935425 1827.938965,1458.051636 1820.980591,1467.576294 
	C1820.295166,1468.514404 1819.534668,1469.397949 1818.550049,1470.555420 
z"/>
<path fill="#FFFFFF" opacity="1.000000" stroke="none" 
	d="
M1469.266602,1243.013550 
	C1456.370605,1230.662109 1443.700439,1218.137939 1431.138184,1205.506470 
	C1416.924561,1191.214355 1402.840088,1176.793945 1388.641724,1162.486572 
	C1363.289551,1136.939941 1337.892944,1111.437500 1312.521973,1085.909424 
	C1311.609131,1084.990967 1310.773560,1083.995728 1309.458740,1082.548584 
	C1314.901855,1079.942017 1319.850464,1077.336426 1324.979004,1075.153076 
	C1375.051392,1053.835938 1403.645630,1015.499023 1413.592896,962.709106 
	C1415.178223,954.295715 1415.062134,945.451965 1414.730591,936.845825 
	C1414.611572,933.755310 1412.200928,929.916565 1409.653076,927.960266 
	C1406.191528,925.302490 1402.095459,927.406555 1399.303467,930.188904 
	C1390.134155,939.325928 1380.339844,948.023315 1372.370972,958.138489 
	C1355.734741,979.255676 1335.912720,994.847595 1309.074097,1000.479919 
	C1292.446777,1003.969360 1275.910767,1002.028015 1259.397583,1000.019958 
	C1257.544434,999.794556 1254.915283,996.785950 1254.566528,994.740540 
	C1249.898682,967.370667 1244.143188,940.164612 1243.460083,912.217529 
	C1242.646851,878.952576 1246.778076,846.557007 1257.760254,815.037415 
	C1260.983032,805.787903 1266.794312,799.422791 1275.093628,794.736755 
	C1337.508179,759.495789 1399.891113,724.199036 1462.280640,688.914062 
	C1463.438110,688.259521 1464.557129,687.536926 1465.917358,686.608398 
	C1488.304565,673.185547 1510.498413,660.050537 1532.626343,646.805542 
	C1591.181274,611.756836 1649.707397,576.660034 1708.246948,541.585876 
	C1709.525146,540.820129 1710.828735,540.096802 1712.601318,539.077209 
	C1712.753540,540.549988 1712.983765,541.737610 1712.983887,542.925293 
	C1713.000854,644.585266 1713.018921,746.245300 1712.892456,847.905151 
	C1712.889160,850.511108 1711.764282,853.412842 1710.358154,855.677124 
	C1656.442017,942.501099 1602.432739,1029.267334 1548.433105,1116.039429 
	C1522.138428,1158.292603 1495.837891,1200.542236 1469.266602,1243.013550 
z"/>
<path fill="#FFFFFF" opacity="1.000000" stroke="none" 
	d="
M832.424072,682.732178 
	C856.663940,695.887878 880.532166,709.052917 904.526855,721.983093 
	C946.083984,744.377258 987.696106,766.669800 1029.354980,788.873779 
	C1033.961426,791.328979 1035.651001,794.448669 1035.242920,799.673889 
	C1032.405396,836.008911 1029.960205,872.374756 1027.060547,908.704590 
	C1024.754639,937.594177 1027.647339,966.224060 1030.491821,994.881042 
	C1032.052979,1010.609985 1033.519409,1026.348999 1035.210815,1042.063843 
	C1035.624390,1045.906250 1034.566772,1048.762207 1031.803955,1051.404785 
	C1004.735596,1077.295654 977.765259,1103.288940 950.693298,1129.175903 
	C924.583191,1154.143066 898.428223,1179.063843 872.210449,1203.917725 
	C858.077393,1217.315674 843.771423,1230.531372 829.236450,1243.984375 
	C810.617432,1216.168701 792.262146,1188.226196 774.001282,1160.221924 
	C707.376038,1058.047607 640.772156,955.859436 574.249268,853.618408 
	C572.895508,851.537842 571.947021,848.754089 571.944214,846.297058 
	C571.830627,746.341553 571.847107,646.385864 571.855774,546.430237 
	C571.855835,545.147949 571.968628,543.865723 572.059326,541.932190 
	C659.036804,588.992554 745.573059,635.814148 832.424072,682.732178 
z"/>
<path fill="#FEFDFD" opacity="1.000000" stroke="none" 
	d="
M1170.152588,1588.100098 
	C1154.930420,1603.770386 1132.514648,1599.577881 1124.640137,1579.572998 
	C1119.452637,1566.394287 1119.929199,1553.121948 1126.971191,1540.559814 
	C1131.963135,1531.654419 1140.013916,1527.253662 1150.052368,1527.347168 
	C1160.318115,1527.442749 1168.507202,1532.110840 1173.087769,1541.449219 
	C1180.856201,1557.286743 1180.360962,1572.891846 1170.152588,1588.100098 
z"/>
<path fill="#FFFEFD" opacity="1.000000" stroke="none" 
	d="
M234.550095,1503.001465 
	C234.549957,1495.869263 234.549957,1489.236572 234.549957,1481.492798 
	C245.684387,1482.056396 256.712097,1481.663330 267.390961,1483.406982 
	C279.481232,1485.381104 286.365082,1495.894409 285.996582,1508.756592 
	C285.653046,1520.747681 277.053497,1531.365601 264.720154,1532.800415 
	C255.064377,1533.923828 245.173401,1533.025757 234.550232,1533.025757 
	C234.550232,1523.618896 234.550232,1513.559937 234.550095,1503.001465 
z"/>
<path fill="#FFFEFD" opacity="1.000000" stroke="none" 
	d="
M379.820068,1560.116943 
	C380.009949,1552.336426 381.835052,1545.504517 385.887146,1539.382568 
	C396.864532,1522.797607 420.907593,1523.147217 430.752594,1540.428345 
	C438.810211,1554.572021 438.683807,1569.436523 431.166901,1583.826172 
	C426.293457,1593.155273 418.000275,1597.728394 407.419586,1597.506714 
	C396.817444,1597.284668 389.159363,1592.075806 384.255402,1582.791504 
	C380.590424,1575.852905 379.375793,1568.376465 379.820068,1560.116943 
z"/>
<path fill="#FEFDFD" opacity="1.000000" stroke="none" 
	d="
M897.183411,1524.931152 
	C914.145691,1518.366699 933.086975,1529.742798 933.929565,1547.039307 
	C916.403320,1547.039307 898.892029,1547.039307 880.735413,1547.039307 
	C882.291931,1536.678223 887.997070,1529.775757 897.183411,1524.931152 
z"/>
<path fill="#FEFDFC" opacity="1.000000" stroke="none" 
	d="
M1893.519531,1547.548828 
	C1890.627441,1547.797974 1889.856812,1546.962646 1890.459839,1544.382690 
	C1893.879517,1529.748657 1912.886353,1514.157471 1931.908081,1527.681641 
	C1938.366699,1532.273560 1942.562378,1538.530640 1943.892212,1547.548462 
	C1927.074951,1547.548462 1910.517090,1547.548462 1893.519531,1547.548828 
z"/>
<path fill="#FEFDFB" opacity="1.000000" stroke="none" 
	d="
M1335.537598,1541.577881 
	C1336.069946,1543.508789 1336.426147,1545.097534 1336.886597,1547.150391 
	C1318.847046,1547.150391 1301.173218,1547.150391 1283.496826,1547.150391 
	C1283.581177,1536.896118 1293.655396,1525.401001 1304.587524,1523.122437 
	C1317.356567,1520.460938 1329.412109,1527.556641 1335.537598,1541.577881 
z"/>
<path fill="#FFFEFD" opacity="1.000000" stroke="none" 
	d="
M665.960327,1595.218262 
	C651.733398,1587.756958 648.379211,1574.917114 648.744202,1560.883545 
	C648.907593,1554.599243 650.758484,1547.998413 653.353027,1542.218628 
	C657.742004,1532.441406 666.161987,1527.388794 676.890259,1527.342407 
	C687.622253,1527.296143 695.968201,1532.352295 700.663025,1541.976074 
	C707.320862,1555.623779 707.453613,1569.686401 700.428040,1583.276733 
	C693.792908,1596.112061 680.675598,1600.515625 665.960327,1595.218262 
z"/>
</svg>