<?xml version="1.0" encoding="UTF-8" standalone="no" ?>
<!DOCTYPE svg PUBLIC "-//W3C//DTD SVG 1.1//EN" "http://www.w3.org/Graphics/SVG/1.1/DTD/svg11.dtd">
<svg xmlns="http://www.w3.org/2000/svg" xmlns:xlink="http://www.w3.org/1999/xlink" version="1.1" width="1080" height="1080" viewBox="0 0 1080 1080" xml:space="preserve">
<desc>Created with Fabric.js 5.2.4</desc>
<defs>
</defs>
<g transform="matrix(1 0 0 1 540 540)" id="1dc3460b-9737-48f1-9875-0bb67f10f29c"  >
<rect style="stroke: none; stroke-width: 1; stroke-dasharray: none; stroke-linecap: butt; stroke-dashoffset: 0; stroke-linejoin: miter; stroke-miterlimit: 4; fill: rgb(255,255,255); fill-rule: nonzero; opacity: 1; visibility: hidden;" vector-effect="non-scaling-stroke"  x="-540" y="-540" rx="0" ry="0" width="1080" height="1080" />
</g>
<g transform="matrix(1 0 0 1 540 540)" id="8d800149-2867-4017-9828-6537f80215c9"  >
</g>
<g transform="matrix(1 0 0 1 540 540)"  >
<g style="" vector-effect="non-scaling-stroke"   >
		<g transform="matrix(0.07 0 0 -0.07 -178.4 -80.63)"  >
<path style="stroke: none; stroke-width: 1; stroke-dasharray: none; stroke-linecap: butt; stroke-dashoffset: 0; stroke-linejoin: miter; stroke-miterlimit: 4; fill: rgb(212,93,0); fill-rule: nonzero; opacity: 1;" vector-effect="non-scaling-stroke"  transform=" translate(-315.9, -2668.71)" d="M 273 2699 C 176 2623 234 2564 346 2623 C 406 2654 422 2684 396 2714 C 366 2751 333 2746 273 2699 z" stroke-linecap="round" />
</g>
		<g transform="matrix(0.07 0 0 -0.07 -188 -66.74)"  >
<path style="stroke: none; stroke-width: 1; stroke-dasharray: none; stroke-linecap: butt; stroke-dashoffset: 0; stroke-linejoin: miter; stroke-miterlimit: 4; fill: rgb(212,93,0); fill-rule: nonzero; opacity: 1;" vector-effect="non-scaling-stroke"  transform=" translate(-171.9, -2460.26)" d="M 47 2589 C 40 2572 45 2536 57 2509 C 71 2478 73 2443 62 2414 C 40 2356 69 2300 120 2300 C 178 2300 300 2416 300 2470 C 300 2571 80 2674 47 2589 z" stroke-linecap="round" />
</g>
		<g transform="matrix(0.07 0 0 -0.07 -170.69 -73.3)"  >
<path style="stroke: none; stroke-width: 1; stroke-dasharray: none; stroke-linecap: butt; stroke-dashoffset: 0; stroke-linejoin: miter; stroke-miterlimit: 4; fill: rgb(212,93,0); fill-rule: nonzero; opacity: 1;" vector-effect="non-scaling-stroke"  transform=" translate(-431.58, -2558.67)" d="M 352 2582 C 332 2560 322 2533 329 2521 C 361 2470 546 2521 536 2579 C 526 2628 396 2631 352 2582 z" stroke-linecap="round" />
</g>
		<g transform="matrix(0.07 0 0 -0.07 -169.75 -62.93)"  >
<path style="stroke: none; stroke-width: 1; stroke-dasharray: none; stroke-linecap: butt; stroke-dashoffset: 0; stroke-linejoin: miter; stroke-miterlimit: 4; fill: rgb(212,93,0); fill-rule: nonzero; opacity: 1;" vector-effect="non-scaling-stroke"  transform=" translate(-445.67, -2403.14)" d="M 347 2429 C 331 2388 357 2364 432 2349 C 508 2333 576 2387 538 2432 C 506 2471 362 2469 347 2429 z" stroke-linecap="round" />
</g>
		<g transform="matrix(0.07 0 0 -0.07 175.93 -57.56)"  >
<path style="stroke: none; stroke-width: 1; stroke-dasharray: none; stroke-linecap: butt; stroke-dashoffset: 0; stroke-linejoin: miter; stroke-miterlimit: 4; fill: rgb(212,93,0); fill-rule: nonzero; opacity: 1;" vector-effect="non-scaling-stroke"  transform=" translate(-5630.81, -2322.58)" d="M 5591 2361 C 5551 2285 5552 2242 5593 2226 C 5638 2209 5700 2288 5700 2362 C 5700 2442 5632 2441 5591 2361 z" stroke-linecap="round" />
</g>
		<g transform="matrix(0.07 0 0 -0.07 165.91 -55.45)"  >
<path style="stroke: none; stroke-width: 1; stroke-dasharray: none; stroke-linecap: butt; stroke-dashoffset: 0; stroke-linejoin: miter; stroke-miterlimit: 4; fill: rgb(212,93,0); fill-rule: nonzero; opacity: 1;" vector-effect="non-scaling-stroke"  transform=" translate(-5480.49, -2290.92)" d="M 5451 2355 C 5412 2300 5411 2232 5448 2201 C 5485 2171 5540 2244 5540 2322 C 5540 2392 5490 2411 5451 2355 z" stroke-linecap="round" />
</g>
		<g transform="matrix(0.07 0 0 -0.07 -176.76 -55.49)"  >
<path style="stroke: none; stroke-width: 1; stroke-dasharray: none; stroke-linecap: butt; stroke-dashoffset: 0; stroke-linejoin: miter; stroke-miterlimit: 4; fill: rgb(212,93,0); fill-rule: nonzero; opacity: 1;" vector-effect="non-scaling-stroke"  transform=" translate(-340.51, -2291.58)" d="M 265 2347 C 190 2316 320 2205 401 2230 C 458 2248 449 2294 381 2329 C 319 2361 306 2363 265 2347 z" stroke-linecap="round" />
</g>
		<g transform="matrix(0.07 0 0 -0.07 184.86 -51.34)"  >
<path style="stroke: none; stroke-width: 1; stroke-dasharray: none; stroke-linecap: butt; stroke-dashoffset: 0; stroke-linejoin: miter; stroke-miterlimit: 4; fill: rgb(212,93,0); fill-rule: nonzero; opacity: 1;" vector-effect="non-scaling-stroke"  transform=" translate(-5764.87, -2229.27)" d="M 5723 2274 C 5672 2219 5665 2140 5712 2140 C 5760 2140 5862 2251 5848 2288 C 5830 2334 5774 2327 5723 2274 z" stroke-linecap="round" />
</g>
		<g transform="matrix(0.07 0 0 -0.07 -136.04 -43.12)"  >
<path style="stroke: none; stroke-width: 1; stroke-dasharray: none; stroke-linecap: butt; stroke-dashoffset: 0; stroke-linejoin: miter; stroke-miterlimit: 4; fill: rgb(212,93,0); fill-rule: nonzero; opacity: 1;" vector-effect="non-scaling-stroke"  transform=" translate(-951.27, -2106.01)" d="M 921 2221 C 909 2200 900 2172 900 2159 C 900 2146 878 2118 850 2096 C 792 2051 789 2034 831 1991 C 908 1915 1100 1970 1100 2068 C 1100 2206 971 2316 921 2221 z" stroke-linecap="round" />
</g>
		<g transform="matrix(0.07 0 0 -0.07 -118.92 -46.73)"  >
<path style="stroke: none; stroke-width: 1; stroke-dasharray: none; stroke-linecap: butt; stroke-dashoffset: 0; stroke-linejoin: miter; stroke-miterlimit: 4; fill: rgb(212,93,0); fill-rule: nonzero; opacity: 1;" vector-effect="non-scaling-stroke"  transform=" translate(-1208.14, -2160.19)" d="M 1121 2192 C 1103 2169 1107 2157 1143 2132 C 1234 2069 1352 2112 1287 2184 C 1248 2227 1154 2231 1121 2192 z" stroke-linecap="round" />
</g>
		<g transform="matrix(0.07 0 0 -0.07 168.78 -38.3)"  >
<path style="stroke: none; stroke-width: 1; stroke-dasharray: none; stroke-linecap: butt; stroke-dashoffset: 0; stroke-linejoin: miter; stroke-miterlimit: 4; fill: rgb(212,93,0); fill-rule: nonzero; opacity: 1;" vector-effect="non-scaling-stroke"  transform=" translate(-5523.6, -2033.66)" d="M 5470 2161 C 5355 2114 5338 2007 5442 1987 C 5473 1980 5513 1954 5530 1928 C 5595 1827 5696 1918 5670 2055 C 5648 2177 5587 2209 5470 2161 z" stroke-linecap="round" />
</g>
		<g transform="matrix(0.07 0 0 -0.07 186.56 -41.33)"  >
<path style="stroke: none; stroke-width: 1; stroke-dasharray: none; stroke-linecap: butt; stroke-dashoffset: 0; stroke-linejoin: miter; stroke-miterlimit: 4; fill: rgb(212,93,0); fill-rule: nonzero; opacity: 1;" vector-effect="non-scaling-stroke"  transform=" translate(-5790.36, -2079.1)" d="M 5748 2113 C 5691 2064 5691 2000 5748 2000 C 5799 2000 5888 2090 5874 2127 C 5856 2173 5812 2168 5748 2113 z" stroke-linecap="round" />
</g>
		<g transform="matrix(0.07 0 0 -0.07 -116.79 -36.8)"  >
<path style="stroke: none; stroke-width: 1; stroke-dasharray: none; stroke-linecap: butt; stroke-dashoffset: 0; stroke-linejoin: miter; stroke-miterlimit: 4; fill: rgb(212,93,0); fill-rule: nonzero; opacity: 1;" vector-effect="non-scaling-stroke"  transform=" translate(-1239.99, -2011.26)" d="M 1153 2067 C 1125 2038 1143 2000 1199 1971 C 1282 1928 1340 1931 1340 1979 C 1340 2046 1199 2112 1153 2067 z" stroke-linecap="round" />
</g>
		<g transform="matrix(0.07 0 0 -0.07 -121.42 -27.95)"  >
<path style="stroke: none; stroke-width: 1; stroke-dasharray: none; stroke-linecap: butt; stroke-dashoffset: 0; stroke-linejoin: miter; stroke-miterlimit: 4; fill: rgb(212,93,0); fill-rule: nonzero; opacity: 1;" vector-effect="non-scaling-stroke"  transform=" translate(-1170.53, -1878.45)" d="M 1080 1922 C 1080 1876 1139 1804 1180 1799 C 1275 1788 1288 1834 1211 1911 C 1151 1970 1080 1977 1080 1922 z" stroke-linecap="round" />
</g>
		<g transform="matrix(0.07 0 0 -0.07 -131.68 -25.85)"  >
<path style="stroke: none; stroke-width: 1; stroke-dasharray: none; stroke-linecap: butt; stroke-dashoffset: 0; stroke-linejoin: miter; stroke-miterlimit: 4; fill: rgb(212,93,0); fill-rule: nonzero; opacity: 1;" vector-effect="non-scaling-stroke"  transform=" translate(-1016.67, -1846.91)" d="M 946 1908 C 917 1832 1032 1724 1085 1777 C 1111 1803 1060 1888 1000 1920 C 967 1937 957 1935 946 1908 z" stroke-linecap="round" />
</g>
		<g transform="matrix(0.07 0 0 -0.07 -178.61 -20.38)"  >
<path style="stroke: none; stroke-width: 1; stroke-dasharray: none; stroke-linecap: butt; stroke-dashoffset: 0; stroke-linejoin: miter; stroke-miterlimit: 4; fill: rgb(212,93,0); fill-rule: nonzero; opacity: 1;" vector-effect="non-scaling-stroke"  transform=" translate(-312.79, -1764.95)" d="M 344 1905 C 329 1900 309 1874 299 1848 C 289 1821 258 1791 230 1780 C 105 1733 175 1620 328 1620 C 432 1620 460 1647 460 1745 C 460 1863 412 1929 344 1905 z" stroke-linecap="round" />
</g>
		<g transform="matrix(0.07 0 0 -0.07 139.27 -20)"  >
<path style="stroke: none; stroke-width: 1; stroke-dasharray: none; stroke-linecap: butt; stroke-dashoffset: 0; stroke-linejoin: miter; stroke-miterlimit: 4; fill: rgb(212,93,0); fill-rule: nonzero; opacity: 1;" vector-effect="non-scaling-stroke"  transform=" translate(-5081.02, -1759.17)" d="M 5064 1826 C 5004 1775 4985 1684 5031 1667 C 5076 1649 5165 1748 5156 1806 C 5148 1861 5115 1869 5064 1826 z" stroke-linecap="round" />
</g>
		<g transform="matrix(0.07 0 0 -0.07 129.14 -19.43)"  >
<path style="stroke: none; stroke-width: 1; stroke-dasharray: none; stroke-linecap: butt; stroke-dashoffset: 0; stroke-linejoin: miter; stroke-miterlimit: 4; fill: rgb(212,93,0); fill-rule: nonzero; opacity: 1;" vector-effect="non-scaling-stroke"  transform=" translate(-4929.03, -1750.64)" d="M 4880 1780 C 4852 1712 4865 1660 4910 1660 C 4945 1660 5009 1790 4989 1821 C 4965 1861 4904 1839 4880 1780 z" stroke-linecap="round" />
</g>
		<g transform="matrix(0.07 0 0 -0.07 -160.53 -19.21)"  >
<path style="stroke: none; stroke-width: 1; stroke-dasharray: none; stroke-linecap: butt; stroke-dashoffset: 0; stroke-linejoin: miter; stroke-miterlimit: 4; fill: rgb(212,93,0); fill-rule: nonzero; opacity: 1;" vector-effect="non-scaling-stroke"  transform=" translate(-583.89, -1747.4)" d="M 503 1793 C 483 1770 488 1756 532 1722 C 595 1672 657 1668 673 1712 C 699 1778 549 1849 503 1793 z" stroke-linecap="round" />
</g>
		<g transform="matrix(0.07 0 0 -0.07 -87.3 -10.53)"  >
<path style="stroke: none; stroke-width: 1; stroke-dasharray: none; stroke-linecap: butt; stroke-dashoffset: 0; stroke-linejoin: miter; stroke-miterlimit: 4; fill: rgb(212,93,0); fill-rule: nonzero; opacity: 1;" vector-effect="non-scaling-stroke"  transform=" translate(-1682.44, -1617.18)" d="M 1633 1747 C 1626 1739 1620 1711 1620 1683 C 1620 1655 1600 1611 1576 1585 C 1510 1516 1547 1470 1666 1471 C 1819 1473 1863 1559 1780 1695 C 1743 1757 1669 1783 1633 1747 z" stroke-linecap="round" />
</g>
		<g transform="matrix(0.07 0 0 -0.07 -71.2 -16.13)"  >
<path style="stroke: none; stroke-width: 1; stroke-dasharray: none; stroke-linecap: butt; stroke-dashoffset: 0; stroke-linejoin: miter; stroke-miterlimit: 4; fill: rgb(212,93,0); fill-rule: nonzero; opacity: 1;" vector-effect="non-scaling-stroke"  transform=" translate(-1923.89, -1701.12)" d="M 1839 1729 C 1800 1682 1867 1633 1949 1649 C 2024 1664 2033 1674 2007 1716 C 1978 1763 1874 1771 1839 1729 z" stroke-linecap="round" />
</g>
		<g transform="matrix(0.07 0 0 -0.07 146.68 -12.89)"  >
<path style="stroke: none; stroke-width: 1; stroke-dasharray: none; stroke-linecap: butt; stroke-dashoffset: 0; stroke-linejoin: miter; stroke-miterlimit: 4; fill: rgb(212,93,0); fill-rule: nonzero; opacity: 1;" vector-effect="non-scaling-stroke"  transform=" translate(-5192.06, -1652.62)" d="M 5157 1683 C 5113 1644 5097 1616 5107 1592 C 5133 1523 5280 1609 5280 1693 C 5280 1757 5235 1753 5157 1683 z" stroke-linecap="round" />
</g>
		<g transform="matrix(0.07 0 0 -0.07 -160.77 -9.1)"  >
<path style="stroke: none; stroke-width: 1; stroke-dasharray: none; stroke-linecap: butt; stroke-dashoffset: 0; stroke-linejoin: miter; stroke-miterlimit: 4; fill: rgb(212,93,0); fill-rule: nonzero; opacity: 1;" vector-effect="non-scaling-stroke"  transform=" translate(-580.3, -1595.79)" d="M 490 1660 C 457 1607 603 1485 658 1519 C 698 1543 665 1616 600 1650 C 532 1685 507 1687 490 1660 z" stroke-linecap="round" />
</g>
		<g transform="matrix(0.07 0 0 -0.07 173.45 -7.41)"  >
<path style="stroke: none; stroke-width: 1; stroke-dasharray: none; stroke-linecap: butt; stroke-dashoffset: 0; stroke-linejoin: miter; stroke-miterlimit: 4; fill: rgb(212,93,0); fill-rule: nonzero; opacity: 1;" vector-effect="non-scaling-stroke"  transform=" translate(-5593.64, -1570.42)" d="M 5549 1598 C 5514 1530 5522 1480 5568 1480 C 5607 1480 5660 1557 5660 1614 C 5660 1684 5588 1673 5549 1598 z" stroke-linecap="round" />
</g>
		<g transform="matrix(0.07 0 0 -0.07 183.92 -6.47)"  >
<path style="stroke: none; stroke-width: 1; stroke-dasharray: none; stroke-linecap: butt; stroke-dashoffset: 0; stroke-linejoin: miter; stroke-miterlimit: 4; fill: rgb(212,93,0); fill-rule: nonzero; opacity: 1;" vector-effect="non-scaling-stroke"  transform=" translate(-5750.69, -1556.29)" d="M 5718 1602 C 5653 1536 5643 1485 5693 1466 C 5729 1452 5840 1559 5840 1608 C 5840 1664 5777 1660 5718 1602 z" stroke-linecap="round" />
</g>
		<g transform="matrix(0.07 0 0 -0.07 -67.67 -6.73)"  >
<path style="stroke: none; stroke-width: 1; stroke-dasharray: none; stroke-linecap: butt; stroke-dashoffset: 0; stroke-linejoin: miter; stroke-miterlimit: 4; fill: rgb(212,93,0); fill-rule: nonzero; opacity: 1;" vector-effect="non-scaling-stroke"  transform=" translate(-1976.8, -1560.24)" d="M 1881 1592 C 1849 1553 1926 1500 2014 1500 C 2066 1500 2080 1508 2080 1539 C 2080 1611 1930 1651 1881 1592 z" stroke-linecap="round" />
</g>
		<g transform="matrix(0.07 0 0 -0.07 129.21 -1.42)"  >
<path style="stroke: none; stroke-width: 1; stroke-dasharray: none; stroke-linecap: butt; stroke-dashoffset: 0; stroke-linejoin: miter; stroke-miterlimit: 4; fill: rgb(212,93,0); fill-rule: nonzero; opacity: 1;" vector-effect="non-scaling-stroke"  transform=" translate(-4930.08, -1480.57)" d="M 4824 1589 C 4760 1544 4767 1482 4839 1457 C 4872 1446 4904 1419 4911 1398 C 4950 1274 5080 1344 5080 1490 C 5080 1615 4940 1670 4824 1589 z" stroke-linecap="round" />
</g>
		<g transform="matrix(0.07 0 0 -0.07 -178.13 -2.04)"  >
<path style="stroke: none; stroke-width: 1; stroke-dasharray: none; stroke-linecap: butt; stroke-dashoffset: 0; stroke-linejoin: miter; stroke-miterlimit: 4; fill: rgb(212,93,0); fill-rule: nonzero; opacity: 1;" vector-effect="non-scaling-stroke"  transform=" translate(-319.96, -1489.83)" d="M 260 1514 C 260 1440 290 1400 344 1400 C 390 1400 392 1474 349 1536 C 302 1602 260 1592 260 1514 z" stroke-linecap="round" />
</g>
		<g transform="matrix(0.07 0 0 -0.07 -167.68 -1.82)"  >
<path style="stroke: none; stroke-width: 1; stroke-dasharray: none; stroke-linecap: butt; stroke-dashoffset: 0; stroke-linejoin: miter; stroke-miterlimit: 4; fill: rgb(212,93,0); fill-rule: nonzero; opacity: 1;" vector-effect="non-scaling-stroke"  transform=" translate(-476.7, -1486.57)" d="M 400 1521 C 400 1442 493 1364 536 1407 C 557 1429 559 1445 542 1476 C 482 1589 400 1615 400 1521 z" stroke-linecap="round" />
</g>
		<g transform="matrix(0.07 0 0 -0.07 147.18 -2.48)"  >
<path style="stroke: none; stroke-width: 1; stroke-dasharray: none; stroke-linecap: butt; stroke-dashoffset: 0; stroke-linejoin: miter; stroke-miterlimit: 4; fill: rgb(212,93,0); fill-rule: nonzero; opacity: 1;" vector-effect="non-scaling-stroke"  transform=" translate(-5199.6, -1496.46)" d="M 5141 1517 C 5098 1477 5097 1471 5128 1449 C 5169 1419 5226 1432 5271 1481 C 5342 1560 5223 1593 5141 1517 z" stroke-linecap="round" />
</g>
		<g transform="matrix(0.07 0 0 -0.07 190.57 1.29)"  >
<path style="stroke: none; stroke-width: 1; stroke-dasharray: none; stroke-linecap: butt; stroke-dashoffset: 0; stroke-linejoin: miter; stroke-miterlimit: 4; fill: rgb(212,93,0); fill-rule: nonzero; opacity: 1;" vector-effect="non-scaling-stroke"  transform=" translate(-5850.41, -1439.86)" d="M 5813 1479 C 5755 1433 5742 1360 5791 1360 C 5859 1360 5940 1420 5940 1471 C 5940 1533 5886 1536 5813 1479 z" stroke-linecap="round" />
</g>
		<g transform="matrix(0.07 0 0 -0.07 -71.59 2.87)"  >
<path style="stroke: none; stroke-width: 1; stroke-dasharray: none; stroke-linecap: butt; stroke-dashoffset: 0; stroke-linejoin: miter; stroke-miterlimit: 4; fill: rgb(212,93,0); fill-rule: nonzero; opacity: 1;" vector-effect="non-scaling-stroke"  transform=" translate(-1918.12, -1416.22)" d="M 1827 1470 C 1811 1427 1894 1340 1952 1340 C 2020 1340 2031 1378 1977 1430 C 1912 1493 1843 1512 1827 1470 z" stroke-linecap="round" />
</g>
		<g transform="matrix(0.07 0 0 -0.07 -80.84 6.65)"  >
<path style="stroke: none; stroke-width: 1; stroke-dasharray: none; stroke-linecap: butt; stroke-dashoffset: 0; stroke-linejoin: miter; stroke-miterlimit: 4; fill: rgb(212,93,0); fill-rule: nonzero; opacity: 1;" vector-effect="non-scaling-stroke"  transform=" translate(-1779.34, -1359.44)" d="M 1700 1393 C 1700 1336 1758 1280 1817 1280 C 1875 1280 1872 1330 1811 1391 C 1748 1454 1700 1455 1700 1393 z" stroke-linecap="round" />
</g>
		<g transform="matrix(0.07 0 0 -0.07 172.1 10.82)"  >
<path style="stroke: none; stroke-width: 1; stroke-dasharray: none; stroke-linecap: butt; stroke-dashoffset: 0; stroke-linejoin: miter; stroke-miterlimit: 4; fill: rgb(212,93,0); fill-rule: nonzero; opacity: 1;" vector-effect="non-scaling-stroke"  transform=" translate(-5573.35, -1296.97)" d="M 5451 1401 C 5409 1355 5423 1301 5481 1286 C 5503 1280 5534 1245 5550 1207 C 5603 1080 5720 1160 5720 1325 C 5720 1443 5536 1495 5451 1401 z" stroke-linecap="round" />
</g>
		<g transform="matrix(0.07 0 0 -0.07 -128.01 12.72)"  >
<path style="stroke: none; stroke-width: 1; stroke-dasharray: none; stroke-linecap: butt; stroke-dashoffset: 0; stroke-linejoin: miter; stroke-miterlimit: 4; fill: rgb(212,93,0); fill-rule: nonzero; opacity: 1;" vector-effect="non-scaling-stroke"  transform=" translate(-1071.81, -1268.49)" d="M 1064 1396 C 1051 1383 1040 1356 1040 1337 C 1040 1318 1013 1283 980 1260 C 878 1188 926 1120 1079 1120 C 1199 1120 1229 1151 1214 1262 C 1198 1386 1122 1454 1064 1396 z" stroke-linecap="round" />
</g>
		<g transform="matrix(0.07 0 0 -0.07 -17.9 9.31)"  >
<path style="stroke: none; stroke-width: 1; stroke-dasharray: none; stroke-linecap: butt; stroke-dashoffset: 0; stroke-linejoin: miter; stroke-miterlimit: 4; fill: rgb(212,93,0); fill-rule: nonzero; opacity: 1;" vector-effect="non-scaling-stroke"  transform=" translate(-2723.45, -1319.58)" d="M 2659 1343 C 2605 1300 2621 1260 2692 1260 C 2794 1260 2864 1339 2788 1368 C 2737 1388 2707 1382 2659 1343 z" stroke-linecap="round" />
</g>
		<g transform="matrix(0.07 0 0 -0.07 84.57 11.07)"  >
<path style="stroke: none; stroke-width: 1; stroke-dasharray: none; stroke-linecap: butt; stroke-dashoffset: 0; stroke-linejoin: miter; stroke-miterlimit: 4; fill: rgb(212,93,0); fill-rule: nonzero; opacity: 1;" vector-effect="non-scaling-stroke"  transform=" translate(-4260.48, -1293.13)" d="M 4211 1336 C 4174 1283 4171 1228 4203 1208 C 4230 1191 4340 1305 4340 1350 C 4340 1397 4247 1386 4211 1336 z" stroke-linecap="round" />
</g>
		<g transform="matrix(0.07 0 0 -0.07 189.84 11.45)"  >
<path style="stroke: none; stroke-width: 1; stroke-dasharray: none; stroke-linecap: butt; stroke-dashoffset: 0; stroke-linejoin: miter; stroke-miterlimit: 4; fill: rgb(212,93,0); fill-rule: nonzero; opacity: 1;" vector-effect="non-scaling-stroke"  transform=" translate(-5839.51, -1287.45)" d="M 5850 1344 C 5806 1335 5740 1283 5740 1257 C 5740 1222 5841 1216 5890 1248 C 5972 1302 5946 1364 5850 1344 z" stroke-linecap="round" />
</g>
		<g transform="matrix(0.07 0 0 -0.07 -109.98 11.8)"  >
<path style="stroke: none; stroke-width: 1; stroke-dasharray: none; stroke-linecap: butt; stroke-dashoffset: 0; stroke-linejoin: miter; stroke-miterlimit: 4; fill: rgb(212,93,0); fill-rule: nonzero; opacity: 1;" vector-effect="non-scaling-stroke"  transform=" translate(-1342.18, -1282.23)" d="M 1249 1318 C 1229 1286 1280 1243 1355 1228 C 1434 1212 1470 1268 1409 1313 C 1365 1345 1268 1349 1249 1318 z" stroke-linecap="round" />
</g>
		<g transform="matrix(0.07 0 0 -0.07 -31.66 18.39)"  >
<path style="stroke: none; stroke-width: 1; stroke-dasharray: none; stroke-linecap: butt; stroke-dashoffset: 0; stroke-linejoin: miter; stroke-miterlimit: 4; fill: rgb(212,93,0); fill-rule: nonzero; opacity: 1;" vector-effect="non-scaling-stroke"  transform=" translate(-2516.93, -1183.44)" d="M 2433 1327 C 2426 1319 2420 1279 2420 1238 C 2420 1196 2411 1157 2400 1150 C 2370 1132 2376 1068 2409 1041 C 2478 984 2677 1095 2651 1176 C 2616 1287 2485 1378 2433 1327 z" stroke-linecap="round" />
</g>
		<g transform="matrix(0.07 0 0 -0.07 94.58 13.28)"  >
<path style="stroke: none; stroke-width: 1; stroke-dasharray: none; stroke-linecap: butt; stroke-dashoffset: 0; stroke-linejoin: miter; stroke-miterlimit: 4; fill: rgb(212,93,0); fill-rule: nonzero; opacity: 1;" vector-effect="non-scaling-stroke"  transform=" translate(-4410.65, -1259.99)" d="M 4363 1294 C 4310 1237 4307 1180 4357 1180 C 4411 1180 4500 1256 4500 1301 C 4500 1356 4418 1352 4363 1294 z" stroke-linecap="round" />
</g>
		<g transform="matrix(0.07 0 0 -0.07 -12.81 18.58)"  >
<path style="stroke: none; stroke-width: 1; stroke-dasharray: none; stroke-linecap: butt; stroke-dashoffset: 0; stroke-linejoin: miter; stroke-miterlimit: 4; fill: rgb(212,93,0); fill-rule: nonzero; opacity: 1;" vector-effect="non-scaling-stroke"  transform=" translate(-2799.7, -1180.46)" d="M 2701 1212 C 2683 1189 2687 1177 2723 1152 C 2817 1087 2962 1136 2889 1208 C 2850 1248 2733 1250 2701 1212 z" stroke-linecap="round" />
</g>
		<g transform="matrix(0.07 0 0 -0.07 34.83 19.33)"  >
<path style="stroke: none; stroke-width: 1; stroke-dasharray: none; stroke-linecap: butt; stroke-dashoffset: 0; stroke-linejoin: miter; stroke-miterlimit: 4; fill: rgb(212,93,0); fill-rule: nonzero; opacity: 1;" vector-effect="non-scaling-stroke"  transform=" translate(-3514.4, -1169.21)" d="M 3459 1203 C 3407 1161 3417 1100 3477 1100 C 3540 1100 3626 1179 3598 1212 C 3566 1250 3513 1247 3459 1203 z" stroke-linecap="round" />
</g>
		<g transform="matrix(0.07 0 0 -0.07 -108.97 21.95)"  >
<path style="stroke: none; stroke-width: 1; stroke-dasharray: none; stroke-linecap: butt; stroke-dashoffset: 0; stroke-linejoin: miter; stroke-miterlimit: 4; fill: rgb(212,93,0); fill-rule: nonzero; opacity: 1;" vector-effect="non-scaling-stroke"  transform=" translate(-1357.33, -1129.9)" d="M 1260 1171 C 1260 1134 1355 1060 1403 1060 C 1463 1060 1473 1121 1421 1163 C 1366 1208 1260 1213 1260 1171 z" stroke-linecap="round" />
</g>
		<g transform="matrix(0.07 0 0 -0.07 99.77 22.06)"  >
<path style="stroke: none; stroke-width: 1; stroke-dasharray: none; stroke-linecap: butt; stroke-dashoffset: 0; stroke-linejoin: miter; stroke-miterlimit: 4; fill: rgb(212,93,0); fill-rule: nonzero; opacity: 1;" vector-effect="non-scaling-stroke"  transform=" translate(-4488.44, -1128.26)" d="M 4469 1181 C 4415 1159 4373 1107 4389 1081 C 4411 1046 4518 1058 4560 1100 C 4631 1171 4573 1223 4469 1181 z" stroke-linecap="round" />
</g>
		<g transform="matrix(0.07 0 0 -0.07 79.53 27.99)"  >
<path style="stroke: none; stroke-width: 1; stroke-dasharray: none; stroke-linecap: butt; stroke-dashoffset: 0; stroke-linejoin: miter; stroke-miterlimit: 4; fill: rgb(212,93,0); fill-rule: nonzero; opacity: 1;" vector-effect="non-scaling-stroke"  transform=" translate(-4184.81, -1039.45)" d="M 4071 1149 C 4028 1105 4032 1086 4090 1048 C 4118 1030 4140 996 4140 972 C 4140 867 4242 850 4300 945 C 4400 1109 4205 1282 4071 1149 z" stroke-linecap="round" />
</g>
		<g transform="matrix(0.07 0 0 -0.07 25.3 32.47)"  >
<path style="stroke: none; stroke-width: 1; stroke-dasharray: none; stroke-linecap: butt; stroke-dashoffset: 0; stroke-linejoin: miter; stroke-miterlimit: 4; fill: rgb(212,93,0); fill-rule: nonzero; opacity: 1;" vector-effect="non-scaling-stroke"  transform=" translate(-3371.37, -972.25)" d="M 3268 1125 C 3232 1101 3245 840 3283 819 C 3362 774 3535 939 3488 1015 C 3439 1094 3315 1156 3268 1125 z" stroke-linecap="round" />
</g>
		<g transform="matrix(0.07 0 0 -0.07 42.46 25.9)"  >
<path style="stroke: none; stroke-width: 1; stroke-dasharray: none; stroke-linecap: butt; stroke-dashoffset: 0; stroke-linejoin: miter; stroke-miterlimit: 4; fill: rgb(212,93,0); fill-rule: nonzero; opacity: 1;" vector-effect="non-scaling-stroke"  transform=" translate(-3628.74, -1070.77)" d="M 3585 1110 C 3465 1058 3540 971 3664 1018 C 3736 1045 3753 1081 3709 1113 C 3665 1145 3666 1146 3585 1110 z" stroke-linecap="round" />
</g>
		<g transform="matrix(0.07 0 0 -0.07 -115.04 29.85)"  >
<path style="stroke: none; stroke-width: 1; stroke-dasharray: none; stroke-linecap: butt; stroke-dashoffset: 0; stroke-linejoin: miter; stroke-miterlimit: 4; fill: rgb(212,93,0); fill-rule: nonzero; opacity: 1;" vector-effect="non-scaling-stroke"  transform=" translate(-1266.26, -1011.54)" d="M 1180 1063 C 1180 1004 1259 917 1306 924 C 1367 933 1368 968 1309 1037 C 1250 1108 1180 1121 1180 1063 z" stroke-linecap="round" />
</g>
		<g transform="matrix(0.07 0 0 -0.07 -15.45 28.51)"  >
<path style="stroke: none; stroke-width: 1; stroke-dasharray: none; stroke-linecap: butt; stroke-dashoffset: 0; stroke-linejoin: miter; stroke-miterlimit: 4; fill: rgb(212,93,0); fill-rule: nonzero; opacity: 1;" vector-effect="non-scaling-stroke"  transform=" translate(-2760.16, -1031.54)" d="M 2660 1071 C 2660 1032 2713 982 2770 968 C 2863 945 2894 1014 2816 1069 C 2759 1109 2660 1110 2660 1071 z" stroke-linecap="round" />
</g>
		<g transform="matrix(0.07 0 0 -0.07 129.4 29.81)"  >
<path style="stroke: none; stroke-width: 1; stroke-dasharray: none; stroke-linecap: butt; stroke-dashoffset: 0; stroke-linejoin: miter; stroke-miterlimit: 4; fill: rgb(212,93,0); fill-rule: nonzero; opacity: 1;" vector-effect="non-scaling-stroke"  transform=" translate(-4932.96, -1012.13)" d="M 4892 1057 C 4855 1004 4851 948 4882 929 C 4910 912 4995 997 5004 1050 C 5013 1110 4932 1114 4892 1057 z" stroke-linecap="round" />
</g>
		<g transform="matrix(0.07 0 0 -0.07 -125.38 31.29)"  >
<path style="stroke: none; stroke-width: 1; stroke-dasharray: none; stroke-linecap: butt; stroke-dashoffset: 0; stroke-linejoin: miter; stroke-miterlimit: 4; fill: rgb(212,93,0); fill-rule: nonzero; opacity: 1;" vector-effect="non-scaling-stroke"  transform=" translate(-1111.26, -989.91)" d="M 1046 1047 C 1028 1000 1083 911 1136 904 C 1171 899 1180 907 1180 944 C 1180 1043 1075 1123 1046 1047 z" stroke-linecap="round" />
</g>
		<g transform="matrix(0.07 0 0 -0.07 139.79 31.26)"  >
<path style="stroke: none; stroke-width: 1; stroke-dasharray: none; stroke-linecap: butt; stroke-dashoffset: 0; stroke-linejoin: miter; stroke-miterlimit: 4; fill: rgb(212,93,0); fill-rule: nonzero; opacity: 1;" vector-effect="non-scaling-stroke"  transform=" translate(-5088.68, -990.35)" d="M 5049 1031 C 4945 927 5019 849 5127 949 C 5187 1005 5195 1050 5148 1068 C 5103 1085 5103 1085 5049 1031 z" stroke-linecap="round" />
</g>
		<g transform="matrix(0.07 0 0 -0.07 -77.2 37.69)"  >
<path style="stroke: none; stroke-width: 1; stroke-dasharray: none; stroke-linecap: butt; stroke-dashoffset: 0; stroke-linejoin: miter; stroke-miterlimit: 4; fill: rgb(212,93,0); fill-rule: nonzero; opacity: 1;" vector-effect="non-scaling-stroke"  transform=" translate(-1833.91, -893.91)" d="M 1793 1027 C 1786 1019 1780 995 1780 973 C 1780 950 1757 908 1729 879 C 1642 789 1715 720 1868 748 C 1958 765 1988 804 1972 884 C 1948 1007 1851 1084 1793 1027 z" stroke-linecap="round" />
</g>
		<g transform="matrix(0.07 0 0 -0.07 97.22 32.08)"  >
<path style="stroke: none; stroke-width: 1; stroke-dasharray: none; stroke-linecap: butt; stroke-dashoffset: 0; stroke-linejoin: miter; stroke-miterlimit: 4; fill: rgb(212,93,0); fill-rule: nonzero; opacity: 1;" vector-effect="non-scaling-stroke"  transform=" translate(-4450.15, -978.08)" d="M 4420 1026 C 4358 1003 4338 976 4362 947 C 4394 909 4490 913 4531 954 C 4584 1006 4505 1057 4420 1026 z" stroke-linecap="round" />
</g>
		<g transform="matrix(0.07 0 0 -0.07 -60.78 33.35)"  >
<path style="stroke: none; stroke-width: 1; stroke-dasharray: none; stroke-linecap: butt; stroke-dashoffset: 0; stroke-linejoin: miter; stroke-miterlimit: 4; fill: rgb(212,93,0); fill-rule: nonzero; opacity: 1;" vector-effect="non-scaling-stroke"  transform=" translate(-2080.15, -958.97)" d="M 1998 988 C 1976 961 1977 951 2010 928 C 2062 889 2158 892 2174 933 C 2201 1004 2051 1051 1998 988 z" stroke-linecap="round" />
</g>
		<g transform="matrix(0.07 0 0 -0.07 -24.13 33.98)"  >
<path style="stroke: none; stroke-width: 1; stroke-dasharray: none; stroke-linecap: butt; stroke-dashoffset: 0; stroke-linejoin: miter; stroke-miterlimit: 4; fill: rgb(212,93,0); fill-rule: nonzero; opacity: 1;" vector-effect="non-scaling-stroke"  transform=" translate(-2629.94, -949.59)" d="M 2540 993 C 2540 953 2627 880 2676 880 C 2735 880 2734 948 2676 989 C 2621 1027 2540 1030 2540 993 z" stroke-linecap="round" />
</g>
		<g transform="matrix(0.07 0 0 -0.07 42.64 37.08)"  >
<path style="stroke: none; stroke-width: 1; stroke-dasharray: none; stroke-linecap: butt; stroke-dashoffset: 0; stroke-linejoin: miter; stroke-miterlimit: 4; fill: rgb(212,93,0); fill-rule: nonzero; opacity: 1;" vector-effect="non-scaling-stroke"  transform=" translate(-3631.47, -903.08)" d="M 3529 939 C 3492 879 3661 812 3715 866 C 3768 919 3731 960 3632 960 C 3583 960 3537 951 3529 939 z" stroke-linecap="round" />
</g>
		<g transform="matrix(0.07 0 0 -0.07 145.13 40.4)"  >
<path style="stroke: none; stroke-width: 1; stroke-dasharray: none; stroke-linecap: butt; stroke-dashoffset: 0; stroke-linejoin: miter; stroke-miterlimit: 4; fill: rgb(212,93,0); fill-rule: nonzero; opacity: 1;" vector-effect="non-scaling-stroke"  transform=" translate(-5168.78, -853.24)" d="M 5104 879 C 5050 829 5049 806 5097 791 C 5169 768 5301 850 5271 899 C 5249 934 5150 922 5104 879 z" stroke-linecap="round" />
</g>
		<g transform="matrix(0.07 0 0 -0.07 125.91 46.84)"  >
<path style="stroke: none; stroke-width: 1; stroke-dasharray: none; stroke-linecap: butt; stroke-dashoffset: 0; stroke-linejoin: miter; stroke-miterlimit: 4; fill: rgb(212,93,0); fill-rule: nonzero; opacity: 1;" vector-effect="non-scaling-stroke"  transform=" translate(-4880.55, -756.64)" d="M 4764 876 C 4728 840 4735 786 4781 753 C 4804 738 4829 699 4837 667 C 4873 535 5020 629 5020 783 C 5020 887 4840 952 4764 876 z" stroke-linecap="round" />
</g>
		<g transform="matrix(0.07 0 0 -0.07 -57.7 43.31)"  >
<path style="stroke: none; stroke-width: 1; stroke-dasharray: none; stroke-linecap: butt; stroke-dashoffset: 0; stroke-linejoin: miter; stroke-miterlimit: 4; fill: rgb(212,93,0); fill-rule: nonzero; opacity: 1;" vector-effect="non-scaling-stroke"  transform=" translate(-2126.42, -809.65)" d="M 2033 867 C 1990 823 2084 740 2177 740 C 2219 740 2244 781 2223 814 C 2190 864 2066 899 2033 867 z" stroke-linecap="round" />
</g>
		<g transform="matrix(0.07 0 0 -0.07 36.51 44.18)"  >
<path style="stroke: none; stroke-width: 1; stroke-dasharray: none; stroke-linecap: butt; stroke-dashoffset: 0; stroke-linejoin: miter; stroke-miterlimit: 4; fill: rgb(212,93,0); fill-rule: nonzero; opacity: 1;" vector-effect="non-scaling-stroke"  transform=" translate(-3539.61, -796.57)" d="M 3453 847 C 3402 795 3534 705 3605 743 C 3655 770 3648 795 3581 829 C 3518 862 3475 868 3453 847 z" stroke-linecap="round" />
</g>
		<g transform="matrix(0.07 0 0 -0.07 -62.31 52.25)"  >
<path style="stroke: none; stroke-width: 1; stroke-dasharray: none; stroke-linecap: butt; stroke-dashoffset: 0; stroke-linejoin: miter; stroke-miterlimit: 4; fill: rgb(212,93,0); fill-rule: nonzero; opacity: 1;" vector-effect="non-scaling-stroke"  transform=" translate(-2057.2, -675.49)" d="M 1970 740 C 1927 670 2077 549 2135 607 C 2163 634 2159 644 2104 699 C 2042 761 1992 776 1970 740 z" stroke-linecap="round" />
</g>
		<g transform="matrix(0.07 0 0 -0.07 143.11 50.59)"  >
<path style="stroke: none; stroke-width: 1; stroke-dasharray: none; stroke-linecap: butt; stroke-dashoffset: 0; stroke-linejoin: miter; stroke-miterlimit: 4; fill: rgb(212,93,0); fill-rule: nonzero; opacity: 1;" vector-effect="non-scaling-stroke"  transform=" translate(-5138.58, -700.38)" d="M 5075 739 C 5024 709 5032 663 5090 648 C 5147 634 5247 688 5235 726 C 5225 757 5120 766 5075 739 z" stroke-linecap="round" />
</g>
		<g transform="matrix(0.07 0 0 -0.07 -72.2 55.33)"  >
<path style="stroke: none; stroke-width: 1; stroke-dasharray: none; stroke-linecap: butt; stroke-dashoffset: 0; stroke-linejoin: miter; stroke-miterlimit: 4; fill: rgb(212,93,0); fill-rule: nonzero; opacity: 1;" vector-effect="non-scaling-stroke"  transform=" translate(-1908.85, -629.31)" d="M 1838 695 C 1830 615 1881 540 1943 540 C 2000 540 1990 629 1927 679 C 1867 726 1841 731 1838 695 z" stroke-linecap="round" />
</g>
		<g transform="matrix(0.07 0 0 -0.07 0.73 54.45)"  >
<path style="stroke: none; stroke-width: 1; stroke-dasharray: none; stroke-linecap: butt; stroke-dashoffset: 0; stroke-linejoin: miter; stroke-miterlimit: 4; fill: rgb(212,93,0); fill-rule: nonzero; opacity: 1;" vector-effect="non-scaling-stroke"  transform=" translate(-3002.91, -642.5)" d="M 2929 659 C 2881 606 2920 573 3009 590 C 3083 603 3109 628 3093 669 C 3076 714 2973 708 2929 659 z" stroke-linecap="round" />
</g>
		<g transform="matrix(0.07 0 0 -0.07 70.55 57.36)"  >
<path style="stroke: none; stroke-width: 1; stroke-dasharray: none; stroke-linecap: butt; stroke-dashoffset: 0; stroke-linejoin: miter; stroke-miterlimit: 4; fill: rgb(212,93,0); fill-rule: nonzero; opacity: 1;" vector-effect="non-scaling-stroke"  transform=" translate(-4050.12, -598.81)" d="M 4037 650 C 3952 603 3939 520 4018 520 C 4067 520 4148 611 4133 649 C 4119 687 4105 687 4037 650 z" stroke-linecap="round" />
</g>
		<g transform="matrix(0.07 0 0 -0.07 -12.66 63.95)"  >
<path style="stroke: none; stroke-width: 1; stroke-dasharray: none; stroke-linecap: butt; stroke-dashoffset: 0; stroke-linejoin: miter; stroke-miterlimit: 4; fill: rgb(212,93,0); fill-rule: nonzero; opacity: 1;" vector-effect="non-scaling-stroke"  transform=" translate(-2801.95, -500.04)" d="M 2721 631 C 2708 615 2703 584 2710 561 C 2717 537 2708 496 2688 462 C 2621 348 2733 299 2862 386 C 2953 447 2960 514 2883 597 C 2819 665 2759 677 2721 631 z" stroke-linecap="round" />
</g>
		<g transform="matrix(0.07 0 0 -0.07 79.84 62.35)"  >
<path style="stroke: none; stroke-width: 1; stroke-dasharray: none; stroke-linecap: butt; stroke-dashoffset: 0; stroke-linejoin: miter; stroke-miterlimit: 4; fill: rgb(212,93,0); fill-rule: nonzero; opacity: 1;" vector-effect="non-scaling-stroke"  transform=" translate(-4189.52, -524.02)" d="M 4170 577 C 4037 504 4070 410 4209 468 C 4290 502 4311 533 4279 571 C 4251 605 4224 607 4170 577 z" stroke-linecap="round" />
</g>
		<g transform="matrix(0.07 0 0 -0.07 6.49 62.77)"  >
<path style="stroke: none; stroke-width: 1; stroke-dasharray: none; stroke-linecap: butt; stroke-dashoffset: 0; stroke-linejoin: miter; stroke-miterlimit: 4; fill: rgb(212,93,0); fill-rule: nonzero; opacity: 1;" vector-effect="non-scaling-stroke"  transform=" translate(-3089.24, -517.73)" d="M 3015 558 C 2971 533 2970 488 3012 472 C 3076 447 3181 459 3194 493 C 3219 559 3094 604 3015 558 z" stroke-linecap="round" />
</g>
		<g transform="matrix(0.07 0 0 -0.07 63.21 73.3)"  >
<path style="stroke: none; stroke-width: 1; stroke-dasharray: none; stroke-linecap: butt; stroke-dashoffset: 0; stroke-linejoin: miter; stroke-miterlimit: 4; fill: rgb(212,93,0); fill-rule: nonzero; opacity: 1;" vector-effect="non-scaling-stroke"  transform=" translate(-3940.1, -359.66)" d="M 3829 491 C 3792 464 3791 460 3824 396 C 3843 360 3861 303 3864 270 C 3877 133 4080 248 4080 393 C 4080 477 3903 546 3829 491 z" stroke-linecap="round" />
</g>
		<g transform="matrix(0.07 0 0 -0.07 82.66 72.54)"  >
<path style="stroke: none; stroke-width: 1; stroke-dasharray: none; stroke-linecap: butt; stroke-dashoffset: 0; stroke-linejoin: miter; stroke-miterlimit: 4; fill: rgb(212,93,0); fill-rule: nonzero; opacity: 1;" vector-effect="non-scaling-stroke"  transform=" translate(-4231.82, -371.19)" d="M 4210 425 C 4115 402 4094 349 4169 320 C 4237 295 4340 332 4340 382 C 4340 403 4332 420 4322 420 C 4312 420 4291 423 4277 428 C 4262 432 4232 431 4210 425 z" stroke-linecap="round" />
</g>
		<g transform="matrix(0.07 0 0 -0.07 4.51 73.66)"  >
<path style="stroke: none; stroke-width: 1; stroke-dasharray: none; stroke-linecap: butt; stroke-dashoffset: 0; stroke-linejoin: miter; stroke-miterlimit: 4; fill: rgb(212,93,0); fill-rule: nonzero; opacity: 1;" vector-effect="non-scaling-stroke"  transform=" translate(-3059.56, -354.28)" d="M 2960 393 C 2960 339 3074 271 3130 293 C 3173 309 3167 375 3121 399 C 3065 430 2960 425 2960 393 z" stroke-linecap="round" />
</g>
		<g transform="matrix(0.07 0 0 -0.07 -4.3 79.31)"  >
<path style="stroke: none; stroke-width: 1; stroke-dasharray: none; stroke-linecap: butt; stroke-dashoffset: 0; stroke-linejoin: miter; stroke-miterlimit: 4; fill: rgb(212,93,0); fill-rule: nonzero; opacity: 1;" vector-effect="non-scaling-stroke"  transform=" translate(-2927.46, -269.52)" d="M 2840 313 C 2840 276 2926 200 2967 200 C 3024 200 3032 262 2981 303 C 2928 346 2840 352 2840 313 z" stroke-linecap="round" />
</g>
		<g transform="matrix(0.07 0 0 -0.07 77.81 81.64)"  >
<path style="stroke: none; stroke-width: 1; stroke-dasharray: none; stroke-linecap: butt; stroke-dashoffset: 0; stroke-linejoin: miter; stroke-miterlimit: 4; fill: rgb(212,93,0); fill-rule: nonzero; opacity: 1;" vector-effect="non-scaling-stroke"  transform=" translate(-4159.01, -234.58)" d="M 4095 286 C 4012 265 4076 180 4175 180 C 4242 180 4284 226 4248 259 C 4223 281 4137 296 4095 286 z" stroke-linecap="round" />
</g>
</g>
</g>
<g transform="matrix(NaN NaN NaN NaN 0 0)"  >
<g style=""   >
</g>
</g>
<g transform="matrix(NaN NaN NaN NaN 0 0)"  >
<g style=""   >
</g>
</g>
</svg>