<svg width="971" height="850" viewBox="0 0 971 850" fill="none" xmlns="http://www.w3.org/2000/svg">
<rect width="971" height="850" fill="#F5F5F5"/>
<g clip-path="url(#clip0_0_1)">
<rect width="971" height="850" fill="white"/>
<path fill-rule="evenodd" clip-rule="evenodd" d="M106.392 309.462C97.6908 322.517 96.8892 339.068 103.961 359.671C106.826 368.019 107.659 369.439 118.173 383.91C128.617 398.286 129.825 399.65 136.82 404.972C170.507 430.6 204.716 429.324 218.87 401.911C222.67 394.554 224.056 388.607 223.982 379.986C223.846 363.96 218.908 350.105 207.952 335.007C195.493 317.836 179.411 305.565 160.067 298.466C152.001 295.506 137.585 294.04 129.762 295.384C123.696 296.426 121.609 297.315 115.6 301.412C111.21 304.407 107.74 307.441 106.392 309.462ZM227.881 234.92C213.139 256.962 212.675 291.063 226.711 320.812C242.797 354.906 275.528 371.707 300.022 358.442C328.258 343.151 332.995 297.774 310.471 258.32C302.148 243.74 291.098 232.439 278.252 225.369C270.033 220.847 255.915 218.742 248.312 220.905C241.441 222.86 231.292 229.822 227.881 234.92ZM88.6324 449.319C78.2734 460.491 76.2714 477.66 83.2092 495.837C84.4281 499.03 88.2616 505.979 91.7285 511.278C96.9076 519.193 99.433 522.187 105.876 528.051C126.028 546.39 149.85 555.232 169.883 551.808C177.83 550.449 178.69 550.073 186.047 544.728C193.405 539.382 194.027 538.683 197.78 531.532C204.129 519.441 204.169 504.147 197.893 488.54C193.987 478.826 181.009 462.719 171.505 455.79C141.776 434.117 105.367 431.274 88.6324 449.319ZM362.052 274.035C344.56 293.581 339.833 331.19 351.188 360.47C354.764 369.689 363.145 382.016 369.471 387.359C388.681 403.585 415.198 402.639 429.629 385.213C445.669 365.845 448.008 328.517 434.986 299.764C430.446 289.739 421.178 277.164 414.294 271.687C403.905 263.423 392.265 260.248 381.138 262.64C375.472 263.859 366.208 269.39 362.052 274.035ZM243.484 410.27C237.074 417.498 232.84 424.553 229.546 433.496C225.733 443.846 224.441 454.104 224.157 476.275C223.884 497.608 222.842 505.985 218.363 522.856C213.661 540.562 212.652 546.319 212.694 555.223C212.87 593.038 243.757 624.865 278.969 623.512C300.605 622.681 313.526 614.437 336.087 587.065C347.702 572.975 350.414 570.191 359.454 563.083C372.594 552.75 381.091 548.556 403.747 541.218C420.045 535.938 421.673 535.203 431.262 528.805C440.546 522.61 441.915 521.385 446.649 515.028C453.182 506.26 456.604 497.418 458.123 485.376C461.89 455.527 442.495 425.479 413.123 415.658C409.065 414.3 397.255 412.054 386.88 410.665C365.479 407.8 356.577 405.586 334.808 397.71C313.841 390.126 295.102 387.148 282.034 389.323C266.986 391.829 253.189 399.325 243.484 410.27Z" fill="#FF8423" fill-opacity="0.46"/>
<path fill-rule="evenodd" clip-rule="evenodd" d="M774.011 40.7877C786.297 49.8626 792.566 64.7373 793.028 85.9114C793.215 94.4909 792.933 96.0638 788.211 112.763C783.519 129.352 782.877 130.997 778.294 138.169C756.221 172.706 724.67 182.806 702.616 162.394C696.696 156.915 693.445 151.933 690.627 144.023C685.386 129.32 685.242 115.021 690.156 97.6028C695.745 77.7935 706.27 61.2731 721.494 48.4091C727.843 43.045 740.468 36.9555 748.036 35.6082C753.904 34.5639 756.1 34.6892 762.938 36.4577C767.935 37.7506 772.108 39.383 774.011 40.7877ZM638.525 12.6209C659.315 27.9262 671.151 58.9639 668.338 90.7976C665.114 127.28 640.957 153.428 614.231 149.362C583.423 144.676 563.925 104.731 571.212 61.2256C573.905 45.1483 580.176 31.172 589.498 20.4748C595.462 13.6319 607.603 7.05618 615.245 6.5304C622.151 6.05561 633.715 9.08091 638.525 12.6209ZM836.981 162.861C850.145 169.667 857.714 184.712 857.485 203.623C857.445 206.945 856.283 214.563 854.902 220.552C852.839 229.497 851.543 233.068 847.644 240.553C835.446 263.965 816.732 279.898 797.359 283.364C789.673 284.739 788.765 284.678 780.282 282.212C771.798 279.746 770.999 279.311 765.19 274.007C755.367 265.039 750.211 251.063 750.698 234.721C751 224.549 757.417 205.542 763.745 196.074C783.54 166.459 815.715 151.867 836.981 162.861ZM529.542 92.5883C551.999 104.706 568.888 137.547 568.357 168.069C568.189 177.679 564.689 191.714 560.722 198.685C548.675 219.853 524.231 227.721 505.268 216.536C484.193 204.104 469.57 170.732 471.794 140.143C472.569 129.478 476.793 114.924 481.223 107.647C487.909 96.6671 497.438 89.9288 508.362 88.452C513.925 87.7009 524.205 89.7084 529.542 92.5883ZM683.019 178.146C691.27 182.646 697.484 187.704 703.475 194.799C710.408 203.01 715.017 211.967 722.697 232.153C730.085 251.575 733.837 258.894 743.559 272.85C753.763 287.497 756.608 292.431 759.55 300.588C772.048 335.234 754.598 374.518 722.107 384.878C702.143 391.244 687.628 387.959 657.939 370.354C642.656 361.292 639.256 359.638 628.652 356.115C613.238 350.991 604.103 349.953 581.034 350.703C564.438 351.241 562.71 351.106 551.845 348.412C541.324 345.803 539.668 345.134 533.233 340.879C524.354 335.011 518.282 328.05 512.869 317.536C499.45 291.475 507.04 257.603 530.477 238.946C533.714 236.368 543.708 230.424 552.682 225.736C571.195 216.067 578.553 211.11 595.724 196.737C612.263 182.894 628.315 173.998 640.933 171.684C655.464 169.019 670.526 171.331 683.019 178.146Z" fill="#FF8423" fill-opacity="0.46"/>
<path fill-rule="evenodd" clip-rule="evenodd" d="M760.581 458.148C775.231 462.473 786.209 474.307 793.885 494.046C796.995 502.044 797.268 503.619 798.542 520.926C799.807 538.119 799.767 539.885 797.913 548.191C788.983 588.194 762.789 608.477 735.084 596.838C727.648 593.715 722.888 590.145 717.535 583.677C707.581 571.653 702.555 558.265 701.216 540.217C699.693 519.69 703.933 500.567 713.839 483.271C717.97 476.059 727.751 466.019 734.402 462.165C739.558 459.176 741.665 458.543 748.696 457.866C753.834 457.372 758.313 457.479 760.581 458.148ZM623.632 478.019C648.403 485.29 670.142 510.408 678.386 541.284C687.834 576.669 674.077 609.502 647.572 614.823C617.019 620.956 585.035 590.089 577.003 546.715C574.035 530.686 575.148 515.407 580.248 502.167C583.512 493.697 592.673 483.365 599.673 480.258C606 477.45 617.902 476.337 623.632 478.019ZM861.505 551.322C876.203 553.215 888.461 564.765 894.714 582.613C895.813 585.749 897.327 593.305 898.077 599.405C899.198 608.516 899.202 612.314 898.098 620.682C894.643 646.854 882.507 668.227 865.487 678.11C858.735 682.03 857.861 682.284 849.047 682.868C840.231 683.452 839.331 683.317 832.058 680.319C819.76 675.252 810.135 663.882 805.003 648.359C801.809 638.697 801.338 618.642 804.046 607.58C812.518 572.981 837.762 548.264 861.505 551.322ZM548.573 590.438C573.82 594.144 600.922 619.228 610.862 648.091C613.992 657.179 615.503 671.565 614.16 679.472C610.079 703.484 589.801 719.238 568.155 715.213C544.099 710.739 518.944 684.38 510.572 654.876C507.653 644.589 506.644 629.468 508.319 621.115C510.846 608.51 517.495 598.919 527.256 593.795C532.226 591.187 542.573 589.557 548.573 590.438ZM722.057 618.343C731.349 619.75 738.918 622.378 746.974 626.996C756.297 632.341 763.692 639.181 777.813 655.523C791.398 671.247 797.427 676.841 811.336 686.63C825.934 696.904 830.295 700.567 835.85 707.227C859.443 735.509 856.481 778.391 829.493 799.239C812.911 812.049 798.147 813.927 764.228 807.537C746.767 804.249 743.007 803.859 731.837 804.174C715.6 804.631 706.661 806.78 685.24 815.375C669.829 821.557 668.159 822.021 657.027 823.206C646.248 824.353 644.464 824.29 636.961 822.493C626.611 820.015 618.524 815.551 609.842 807.522C588.319 787.622 583.866 753.197 599.508 727.649C601.669 724.12 609.027 715.116 615.857 707.642C629.946 692.224 635.165 685.049 646.385 665.669C657.191 647.005 669.233 633.155 680.298 626.665C693.041 619.192 707.986 616.213 722.057 618.343Z" fill="#FF8423" fill-opacity="0.46"/>
</g>
<defs>
<clipPath id="clip0_0_1">
<rect width="971" height="850" fill="white"/>
</clipPath>
</defs>
</svg>
