<svg width="404" height="370" viewBox="0 0 404 370" fill="none" xmlns="http://www.w3.org/2000/svg">
<path fill-rule="evenodd" clip-rule="evenodd" d="M130.844 1.34602C116.131 6.79302 105.754 19.712 99.365 40.537C96.776 48.975 96.615 50.613 96.615 68.5C96.615 86.27 96.79 88.083 99.321 96.5C111.511 137.035 139.936 156.11 167.5 142.252C174.899 138.533 179.516 134.537 184.523 127.519C193.833 114.474 197.982 100.362 197.993 81.708C198.006 60.493 192.208 41.113 180.731 24C175.945 16.864 165.144 7.20401 158.025 3.69301C152.505 0.971008 150.294 0.463017 143.025 0.246017C137.713 0.088017 133.122 0.503023 130.844 1.34602ZM272.945 12.45C248.063 21.617 227.643 48.932 221.512 81.25C214.486 118.288 231.091 151.119 258.704 154.785C290.535 159.011 321.039 125.084 326.008 79.926C327.844 63.238 325.547 47.6 319.31 34.33C315.319 25.841 305.134 15.839 297.712 13.12C291.004 10.663 278.701 10.33 272.945 12.45ZM34.27 104.054C19.323 107.003 7.61102 119.717 2.54002 138.5C1.64902 141.8 0.665999 149.675 0.355999 156C-0.106001 165.447 0.177005 169.354 1.943 177.885C7.46701 204.567 21.542 225.722 39.762 234.727C46.99 238.299 47.907 238.5 57 238.5C66.095 238.5 67.009 238.3 74.249 234.721C86.492 228.671 95.514 216.321 99.61 200.006C102.16 189.851 101.128 169.192 97.512 158C86.2 122.992 58.415 99.291 34.27 104.054ZM358.5 122.958C332.86 128.49 306.93 156.137 298.906 186.5C296.38 196.06 295.915 210.959 297.892 219C303.896 243.418 325.905 258.239 347.823 252.624C372.183 246.383 396.017 217.559 402.382 186.643C404.602 175.864 404.495 160.243 402.145 151.766C398.598 138.974 391.047 129.563 380.639 124.958C375.339 122.614 364.593 121.643 358.5 122.958ZM182.5 163.482C173.066 165.562 165.494 168.781 157.572 174.08C148.404 180.212 141.329 187.751 128.067 205.521C115.307 222.619 109.54 228.784 96 239.8C81.789 251.361 77.589 255.426 72.389 262.654C50.304 293.35 56.585 337.253 85.868 356.856C103.86 368.901 119.159 369.826 153.5 360.943C171.178 356.371 175.009 355.713 186.5 355.276C203.204 354.64 212.544 356.241 235.186 363.621C251.475 368.929 253.224 369.292 264.742 369.752C275.895 370.197 277.722 370.011 285.289 367.651C295.728 364.397 303.693 359.255 312 350.406C332.593 328.472 334.564 292.762 316.574 267.552C314.089 264.069 305.855 255.31 298.278 248.088C282.648 233.191 276.748 226.167 263.765 207C251.26 188.54 237.851 175.116 226 169.195C212.353 162.377 196.785 160.332 182.5 163.482Z" fill="#DC721F" fill-opacity="0.14"/>
</svg>
