<?xml version="1.0" standalone="no"?>
<!DOCTYPE svg PUBLIC "-//W3C//DTD SVG 20010904//EN"
 "http://www.w3.org/TR/2001/REC-SVG-20010904/DTD/svg10.dtd">
<svg version="1.0" xmlns="http://www.w3.org/2000/svg"
 width="300.000000pt" height="142.000000pt" viewBox="0 0 300.000000 142.000000"
 preserveAspectRatio="xMidYMid meet">
<metadata>
Created by potrace 1.10, written by Peter Selinger 2001-2011
</metadata>
<g transform="translate(0.000000,142.000000) scale(0.050000,-0.050000)"
fill="#000000" stroke="none">
<path d="M273 2699 c-97 -76 -39 -135 73 -76 60 31 76 61 50 91 -30 37 -63 32
-123 -15z"/>
<path d="M47 2589 c-7 -17 -2 -53 10 -80 14 -31 16 -66 5 -95 -22 -58 7 -114
58 -114 58 0 180 116 180 170 0 101 -220 204 -253 119z"/>
<path d="M352 2582 c-20 -22 -30 -49 -23 -61 32 -51 217 0 207 58 -10 49 -140
52 -184 3z"/>
<path d="M347 2429 c-16 -41 10 -65 85 -80 76 -16 144 38 106 83 -32 39 -176
37 -191 -3z"/>
<path d="M5591 2361 c-40 -76 -39 -119 2 -135 45 -17 107 62 107 136 0 80 -68
79 -109 -1z"/>
<path d="M5451 2355 c-39 -55 -40 -123 -3 -154 37 -30 92 43 92 121 0 70 -50
89 -89 33z"/>
<path d="M265 2347 c-75 -31 55 -142 136 -117 57 18 48 64 -20 99 -62 32 -75
34 -116 18z"/>
<path d="M5723 2274 c-51 -55 -58 -134 -11 -134 48 0 150 111 136 148 -18 46
-74 39 -125 -14z"/>
<path d="M921 2221 c-12 -21 -21 -49 -21 -62 0 -13 -22 -41 -50 -63 -58 -45
-61 -62 -19 -105 77 -76 269 -21 269 77 0 138 -129 248 -179 153z"/>
<path d="M1121 2192 c-18 -23 -14 -35 22 -60 91 -63 209 -20 144 52 -39 43
-133 47 -166 8z"/>
<path d="M5470 2161 c-115 -47 -132 -154 -28 -174 31 -7 71 -33 88 -59 65
-101 166 -10 140 127 -22 122 -83 154 -200 106z"/>
<path d="M5748 2113 c-57 -49 -57 -113 0 -113 51 0 140 90 126 127 -18 46 -62
41 -126 -14z"/>
<path d="M1153 2067 c-28 -29 -10 -67 46 -96 83 -43 141 -40 141 8 0 67 -141
133 -187 88z"/>
<path d="M1080 1922 c0 -46 59 -118 100 -123 95 -11 108 35 31 112 -60 59
-131 66 -131 11z"/>
<path d="M946 1908 c-29 -76 86 -184 139 -131 26 26 -25 111 -85 143 -33 17
-43 15 -54 -12z"/>
<path d="M344 1905 c-15 -5 -35 -31 -45 -57 -10 -27 -41 -57 -69 -68 -125 -47
-55 -160 98 -160 104 0 132 27 132 125 0 118 -48 184 -116 160z"/>
<path d="M5064 1826 c-60 -51 -79 -142 -33 -159 45 -18 134 81 125 139 -8 55
-41 63 -92 20z"/>
<path d="M4880 1780 c-28 -68 -15 -120 30 -120 35 0 99 130 79 161 -24 40 -85
18 -109 -41z"/>
<path d="M503 1793 c-20 -23 -15 -37 29 -71 63 -50 125 -54 141 -10 26 66
-124 137 -170 81z"/>
<path d="M1633 1747 c-7 -8 -13 -36 -13 -64 0 -28 -20 -72 -44 -98 -66 -69
-29 -115 90 -114 153 2 197 88 114 224 -37 62 -111 88 -147 52z"/>
<path d="M1839 1729 c-39 -47 28 -96 110 -80 75 15 84 25 58 67 -29 47 -133
55 -168 13z"/>
<path d="M5157 1683 c-44 -39 -60 -67 -50 -91 26 -69 173 17 173 101 0 64 -45
60 -123 -10z"/>
<path d="M490 1660 c-33 -53 113 -175 168 -141 40 24 7 97 -58 131 -68 35 -93
37 -110 10z"/>
<path d="M5549 1598 c-35 -68 -27 -118 19 -118 39 0 92 77 92 134 0 70 -72 59
-111 -16z"/>
<path d="M5718 1602 c-65 -66 -75 -117 -25 -136 36 -14 147 93 147 142 0 56
-63 52 -122 -6z"/>
<path d="M1881 1592 c-32 -39 45 -92 133 -92 52 0 66 8 66 39 0 72 -150 112
-199 53z"/>
<path d="M4824 1589 c-64 -45 -57 -107 15 -132 33 -11 65 -38 72 -59 39 -124
169 -54 169 92 0 125 -140 180 -256 99z"/>
<path d="M260 1514 c0 -74 30 -114 84 -114 46 0 48 74 5 136 -47 66 -89 56
-89 -22z"/>
<path d="M400 1521 c0 -79 93 -157 136 -114 21 22 23 38 6 69 -60 113 -142
139 -142 45z"/>
<path d="M5141 1517 c-43 -40 -44 -46 -13 -68 41 -30 98 -17 143 32 71 79 -48
112 -130 36z"/>
<path d="M5813 1479 c-58 -46 -71 -119 -22 -119 68 0 149 60 149 111 0 62 -54
65 -127 8z"/>
<path d="M1827 1470 c-16 -43 67 -130 125 -130 68 0 79 38 25 90 -65 63 -134
82 -150 40z"/>
<path d="M1700 1393 c0 -57 58 -113 117 -113 58 0 55 50 -6 111 -63 63 -111
64 -111 2z"/>
<path d="M5451 1401 c-42 -46 -28 -100 30 -115 22 -6 53 -41 69 -79 53 -127
170 -47 170 118 0 118 -184 170 -269 76z"/>
<path d="M1064 1396 c-13 -13 -24 -40 -24 -59 0 -19 -27 -54 -60 -77 -102 -72
-54 -140 99 -140 120 0 150 31 135 142 -16 124 -92 192 -150 134z"/>
<path d="M2659 1343 c-54 -43 -38 -83 33 -83 102 0 172 79 96 108 -51 20 -81
14 -129 -25z"/>
<path d="M4211 1336 c-37 -53 -40 -108 -8 -128 27 -17 137 97 137 142 0 47
-93 36 -129 -14z"/>
<path d="M5850 1344 c-44 -9 -110 -61 -110 -87 0 -35 101 -41 150 -9 82 54 56
116 -40 96z"/>
<path d="M1249 1318 c-20 -32 31 -75 106 -90 79 -16 115 40 54 85 -44 32 -141
36 -160 5z"/>
<path d="M2433 1327 c-7 -8 -13 -48 -13 -89 0 -42 -9 -81 -20 -88 -30 -18 -24
-82 9 -109 69 -57 268 54 242 135 -35 111 -166 202 -218 151z"/>
<path d="M4363 1294 c-53 -57 -56 -114 -6 -114 54 0 143 76 143 121 0 55 -82
51 -137 -7z"/>
<path d="M2701 1212 c-18 -23 -14 -35 22 -60 94 -65 239 -16 166 56 -39 40
-156 42 -188 4z"/>
<path d="M3459 1203 c-52 -42 -42 -103 18 -103 63 0 149 79 121 112 -32 38
-85 35 -139 -9z"/>
<path d="M1260 1171 c0 -37 95 -111 143 -111 60 0 70 61 18 103 -55 45 -161
50 -161 8z"/>
<path d="M4469 1181 c-54 -22 -96 -74 -80 -100 22 -35 129 -23 171 19 71 71
13 123 -91 81z"/>
<path d="M4071 1149 c-43 -44 -39 -63 19 -101 28 -18 50 -52 50 -76 0 -105
102 -122 160 -27 100 164 -95 337 -229 204z"/>
<path d="M3268 1125 c-36 -24 -23 -285 15 -306 79 -45 252 120 205 196 -49 79
-173 141 -220 110z"/>
<path d="M3585 1110 c-120 -52 -45 -139 79 -92 72 27 89 63 45 95 -44 32 -43
33 -124 -3z"/>
<path d="M1180 1063 c0 -59 79 -146 126 -139 61 9 62 44 3 113 -59 71 -129 84
-129 26z"/>
<path d="M2660 1071 c0 -39 53 -89 110 -103 93 -23 124 46 46 101 -57 40 -156
41 -156 2z"/>
<path d="M4892 1057 c-37 -53 -41 -109 -10 -128 28 -17 113 68 122 121 9 60
-72 64 -112 7z"/>
<path d="M1046 1047 c-18 -47 37 -136 90 -143 35 -5 44 3 44 40 0 99 -105 179
-134 103z"/>
<path d="M5049 1031 c-104 -104 -30 -182 78 -82 60 56 68 101 21 119 -45 17
-45 17 -99 -37z"/>
<path d="M1793 1027 c-7 -8 -13 -32 -13 -54 0 -23 -23 -65 -51 -94 -87 -90
-14 -159 139 -131 90 17 120 56 104 136 -24 123 -121 200 -179 143z"/>
<path d="M4420 1026 c-62 -23 -82 -50 -58 -79 32 -38 128 -34 169 7 53 52 -26
103 -111 72z"/>
<path d="M1998 988 c-22 -27 -21 -37 12 -60 52 -39 148 -36 164 5 27 71 -123
118 -176 55z"/>
<path d="M2540 993 c0 -40 87 -113 136 -113 59 0 58 68 0 109 -55 38 -136 41
-136 4z"/>
<path d="M3529 939 c-37 -60 132 -127 186 -73 53 53 16 94 -83 94 -49 0 -95
-9 -103 -21z"/>
<path d="M5104 879 c-54 -50 -55 -73 -7 -88 72 -23 204 59 174 108 -22 35
-121 23 -167 -20z"/>
<path d="M4764 876 c-36 -36 -29 -90 17 -123 23 -15 48 -54 56 -86 36 -132
183 -38 183 116 0 104 -180 169 -256 93z"/>
<path d="M2033 867 c-43 -44 51 -127 144 -127 42 0 67 41 46 74 -33 50 -157
85 -190 53z"/>
<path d="M3453 847 c-51 -52 81 -142 152 -104 50 27 43 52 -24 86 -63 33 -106
39 -128 18z"/>
<path d="M1970 740 c-43 -70 107 -191 165 -133 28 27 24 37 -31 92 -62 62
-112 77 -134 41z"/>
<path d="M5075 739 c-51 -30 -43 -76 15 -91 57 -14 157 40 145 78 -10 31 -115
40 -160 13z"/>
<path d="M1838 695 c-8 -80 43 -155 105 -155 57 0 47 89 -16 139 -60 47 -86
52 -89 16z"/>
<path d="M2929 659 c-48 -53 -9 -86 80 -69 74 13 100 38 84 79 -17 45 -120 39
-164 -10z"/>
<path d="M4037 650 c-85 -47 -98 -130 -19 -130 49 0 130 91 115 129 -14 38
-28 38 -96 1z"/>
<path d="M2721 631 c-13 -16 -18 -47 -11 -70 7 -24 -2 -65 -22 -99 -67 -114
45 -163 174 -76 91 61 98 128 21 211 -64 68 -124 80 -162 34z"/>
<path d="M4170 577 c-133 -73 -100 -167 39 -109 81 34 102 65 70 103 -28 34
-55 36 -109 6z"/>
<path d="M3015 558 c-44 -25 -45 -70 -3 -86 64 -25 169 -13 182 21 25 66 -100
111 -179 65z"/>
<path d="M3829 491 c-37 -27 -38 -31 -5 -95 19 -36 37 -93 40 -126 13 -137
216 -22 216 123 0 84 -177 153 -251 98z"/>
<path d="M4210 425 c-95 -23 -116 -76 -41 -105 68 -25 171 12 171 62 0 21 -8
38 -18 38 -10 0 -31 3 -45 8 -15 4 -45 3 -67 -3z"/>
<path d="M2960 393 c0 -54 114 -122 170 -100 43 16 37 82 -9 106 -56 31 -161
26 -161 -6z"/>
<path d="M2840 313 c0 -37 86 -113 127 -113 57 0 65 62 14 103 -53 43 -141 49
-141 10z"/>
<path d="M4095 286 c-83 -21 -19 -106 80 -106 67 0 109 46 73 79 -25 22 -111
37 -153 27z"/>
</g>
</svg>
